<?xml version="1.0" encoding="utf-8"?><svg viewBox="0 0 256 314" xmlns="http://www.w3.org/2000/svg" xmlns:xlink="http://www.w3.org/1999/xlink"><style>:root>svg{display:none}:root>svg:target{display:block}</style><svg fill="none" viewBox="0 0 24 24" id="icon-convert" xmlns="http://www.w3.org/2000/svg"><path d="M12 5.56h10" stroke="#fff" stroke-width="1.5" stroke-miterlimit="10" stroke-linecap="round" stroke-linejoin="round"/><path d="M15.65 10.5h-1.43c-1.78 0-2.22-.44-2.22-2.2V4.2c0-1.76.44-2.2 2.22-2.2h5.56C21.56 2 22 2.44 22 4.2v4.11c0 1.76-.44 2.2-2.22 2.2" stroke="#fff" stroke-width="1.5" stroke-linecap="round" stroke-linejoin="round"/><path d="M2 17.06h10" stroke="#fff" stroke-width="1.5" stroke-miterlimit="10" stroke-linecap="round" stroke-linejoin="round"/><path d="M5.5 22H4.22C2.44 22 2 21.56 2 19.8v-4.1c0-1.76.44-2.2 2.22-2.2h5.56c1.78 0 2.22.44 2.22 2.2v4.11c0 1.76-.44 2.2-2.22 2.2M22 15c0 3.87-3.13 7-7 7l1.05-1.75M2 9c0-3.87 3.13-7 7-7L7.95 3.75" stroke="#fff" stroke-width="1.5" stroke-linecap="round" stroke-linejoin="round"/></svg><svg fill="none" viewBox="0 0 24 24" id="icon-email" xmlns="http://www.w3.org/2000/svg"><path d="M2 8.5c0-3.5 2-5 5-5h10c3 0 5 1.5 5 5v7c0 3.5-2 5-5 5H7" stroke="#292D32" stroke-width="1.5" stroke-miterlimit="10" stroke-linecap="round" stroke-linejoin="round"/><path d="m17 9-3.13 2.5c-1.03.82-2.72.82-3.75 0L7 9M2 16.5h6M2 12.5h3" stroke="#292D32" stroke-width="1.5" stroke-miterlimit="10" stroke-linecap="round" stroke-linejoin="round"/></svg><svg fill="none" viewBox="0 0 24 24" id="icon-language" xmlns="http://www.w3.org/2000/svg"><path d="M12 22c5.523 0 10-4.477 10-10S17.523 2 12 2 2 6.477 2 12s4.477 10 10 10Z" stroke="#292D32" stroke-width="1.5" stroke-linecap="round" stroke-linejoin="round"/><path d="M8 3h1a28.424 28.424 0 0 0 0 18H8M15 3a28.424 28.424 0 0 1 0 18" stroke="#292D32" stroke-width="1.5" stroke-linecap="round" stroke-linejoin="round"/><path d="M3 16v-1a28.424 28.424 0 0 0 18 0v1M3 9a28.424 28.424 0 0 1 18 0" stroke="#292D32" stroke-width="1.5" stroke-linecap="round" stroke-linejoin="round"/></svg><svg fill="none" viewBox="0 0 24 24" id="icon-load-file" xmlns="http://www.w3.org/2000/svg"><path d="M12.06 16.5v-5M14.5 14h-5M2 13.02V7c0-4 1-5 5-5h1.5c1.5 0 1.83.44 2.4 1.2l1.5 2c.38.5.6.8 1.6.8h3c4 0 5 1 5 5M22 14.99V17c0 4-1 5-5 5H7c-4 0-5-1-5-5" stroke="#292D32" stroke-width="1.5" stroke-miterlimit="10" stroke-linecap="round" stroke-linejoin="round"/></svg><svg fill="none" viewBox="0 0 24 24" id="icon-load-img" xmlns="http://www.w3.org/2000/svg"><path d="M2 12.99V15c0 5 2 7 7 7h6c5 0 7-2 7-7V9c0-5-2-7-7-7H9C4 2 2 4 2 9" stroke="#292D32" stroke-width="1.5" stroke-linecap="round" stroke-linejoin="round"/><path d="M11 8c0 1.1-.9 2-2 2s-2-.9-2-2 .9-2 2-2M2.67 18.95l4.93-3.31c.79-.53 1.93-.47 2.64.14l.33.29c.78.67 2.04.67 2.82 0l4.16-3.57c.78-.67 2.04-.67 2.82 0L22 13.9" stroke="#292D32" stroke-width="1.5" stroke-linecap="round" stroke-linejoin="round"/></svg><svg fill="none" viewBox="0 0 24 24" id="icon-login" xmlns="http://www.w3.org/2000/svg"><path d="M2 12h12.88M12.65 8.65 16 12l-3.35 3.35M21.5 13v2.26c0 4.47-1.79 6.26-6.26 6.26h-.13c-4.02 0-5.87-1.45-6.2-4.99M8.9 7.56c.31-3.6 2.16-5.07 6.21-5.07h.13c4.47 0 6.26 1.79 6.26 6.26" stroke="#292D32" stroke-width="1.5" stroke-linecap="round" stroke-linejoin="round"/></svg><svg fill="none" viewBox="0 0 24 24" id="icon-send" xmlns="http://www.w3.org/2000/svg"><path d="M15.89 3.49c3.81-1.27 5.88.81 4.62 4.62l-2.83 8.49c-1.9 5.71-5.02 5.71-6.92 0l-.84-2.52-2.52-.84c-5.71-1.9-5.71-5.01 0-6.92L12 4.79M10.11 13.65l3.58-3.59" stroke="#fff" stroke-width="1.5" stroke-linecap="round" stroke-linejoin="round"/></svg><svg fill="none" viewBox="0 0 24 24" id="icon-settings" xmlns="http://www.w3.org/2000/svg"><path d="M15 12c0-1.66-1.34-3-3-3s-3 1.34-3 3a2.996 2.996 0 0 0 4.17 2.76" stroke="#292D32" stroke-width="1.5" stroke-miterlimit="10" stroke-linecap="round" stroke-linejoin="round"/><path d="m6.88 20.58 1.09.63c.79.47 1.81.19 2.28-.6l.11-.19c.9-1.57 2.38-1.57 3.29 0l.11.19c.47.79 1.49 1.07 2.28.6l1.73-.99c.91-.52 1.22-1.69.7-2.59-.91-1.57-.17-2.85 1.64-2.85 1.04 0 1.9-.85 1.9-1.9v-1.76c0-1.04-.85-1.9-1.9-1.9-1.01 0-1.69-.4-1.93-1.03-.19-.49-.11-1.13.29-1.82.52-.91.21-2.07-.7-2.59l-.81-.46M13.64 3.58c-.9 1.57-2.38 1.57-3.29 0l-.11-.19a1.655 1.655 0 0 0-2.27-.6l-1.73.99c-.91.52-1.22 1.69-.7 2.6.91 1.56.17 2.84-1.64 2.84-1.04 0-1.9.85-1.9 1.9v1.76c0 1.04.85 1.9 1.9 1.9 1.81 0 2.55 1.28 1.64 2.85" stroke="#292D32" stroke-width="1.5" stroke-miterlimit="10" stroke-linecap="round" stroke-linejoin="round"/></svg><svg fill="none" viewBox="0 0 5 21" id="icon-submenu" xmlns="http://www.w3.org/2000/svg"><circle cx="2.5" cy="2.5" r="2.5" fill="#2F2F2F"/><circle cx="2.5" cy="10.5" r="2.5" fill="#2F2F2F"/><circle cx="2.5" cy="18.5" r="2.5" fill="#2F2F2F"/></svg><svg fill="none" viewBox="0 0 40 40" id="icon-telegram" xmlns="http://www.w3.org/2000/svg"><path fill-rule="evenodd" clip-rule="evenodd" d="M40 20c0 11.046-8.954 20-20 20S0 31.046 0 20 8.954 0 20 0s20 8.954 20 20Zm-19.283-5.235c-1.946.809-5.833 2.484-11.664 5.024-.947.376-1.443.745-1.488 1.105-.076.609.686.848 1.724 1.175.141.044.288.09.438.139 1.02.332 2.394.72 3.108.735.648.014 1.371-.253 2.17-.8 5.447-3.678 8.259-5.537 8.435-5.577.125-.028.298-.063.415.04.116.104.105.301.093.354-.076.322-3.068 3.104-4.616 4.543-.483.449-.825.767-.895.84-.157.163-.317.317-.47.465-.95.914-1.66 1.6.039 2.72.817.538 1.47.983 2.122 1.427.712.485 1.422.969 2.341 1.571.234.154.458.313.676.468.828.591 1.573 1.122 2.493 1.037.534-.05 1.086-.552 1.366-2.05.663-3.542 1.965-11.217 2.266-14.38a3.528 3.528 0 0 0-.033-.787c-.027-.155-.082-.377-.285-.541-.24-.195-.61-.236-.775-.233-.752.013-1.906.415-7.46 2.725Z" fill="url(#ja)"/><defs><linearGradient id="ja" x1="20" y1="0" x2="20" y2="39.703" gradientUnits="userSpaceOnUse"><stop stop-color="#2AABEE"/><stop offset="1" stop-color="#229ED9"/></linearGradient></defs></svg><svg fill="none" viewBox="0 0 24 24" id="icon-user" xmlns="http://www.w3.org/2000/svg"><path d="M15.02 3.01A4.944 4.944 0 0 0 12 2C9.24 2 7 4.24 7 7s2.24 5 5 5 5-2.24 5-5M20.59 22c0-3.87-3.85-7-8.59-7s-8.59 3.13-8.59 7" stroke="#fff" stroke-width="1.5" stroke-linecap="round" stroke-linejoin="round"/></svg><svg fill="none" viewBox="0 0 40 40" id="icon-whatsapp" xmlns="http://www.w3.org/2000/svg"><circle cx="20" cy="20" r="20" fill="#20B038"/><path d="M16.092 13.93c.23.01.485.02.727.559.166.368.444 1.054.666 1.6.164.404.297.73.33.8.082.161.136.35.028.566l-.046.092a1.85 1.85 0 0 1-.277.447c-.054.063-.11.13-.165.198a5.457 5.457 0 0 1-.32.368c-.162.161-.33.336-.142.66.188.323.837 1.382 1.798 2.239 1.033.92 1.93 1.31 2.385 1.507.09.04.162.07.215.097.324.162.512.135.7-.081.19-.216.809-.944 1.024-1.267.216-.324.432-.27.728-.162.296.108 1.886.89 2.21 1.052l.176.086c.226.109.378.182.443.29.08.136.08.783-.189 1.538-.27.755-1.59 1.483-2.182 1.537-.057.005-.114.012-.172.019-.548.064-1.24.145-3.708-.828-3.037-1.198-5.04-4.166-5.453-4.779-.034-.05-.057-.085-.07-.101l-.003-.005c-.175-.233-1.317-1.76-1.317-3.339 0-1.489.732-2.27 1.069-2.628a6.92 6.92 0 0 0 .063-.068c.296-.324.646-.405.862-.405h.035c.204 0 .407 0 .585.008Z" fill="#fff"/><path fill-rule="evenodd" clip-rule="evenodd" d="M8.853 26.345a12.744 12.744 0 0 1-1.749-6.474c0-7.127 5.822-12.922 12.948-12.922 3.472 0 6.709 1.358 9.163 3.785C31.643 13.188 33 16.425 33 19.897c0 7.127-5.821 12.922-12.948 12.922-2.166 0-4.307-.522-6.186-1.567L7 33.054l1.853-6.71Zm2.089-.731.26.391-1.096 3.968 4.073-1.07.391.235a10.635 10.635 0 0 0 5.482 1.514c5.926 0 10.755-4.83 10.755-10.755 0-2.871-1.122-5.586-3.158-7.622a10.702 10.702 0 0 0-7.597-3.133c-5.925 0-10.755 4.803-10.755 10.755 0 2.01.574 3.994 1.645 5.717Z" fill="#fff"/></svg><svg fill="none" viewBox="0 0 180 183" id="img-chat" xmlns="http://www.w3.org/2000/svg"><g clip-path="url(#ma)"><path d="M89.739 0c23.8 0 46.625 9.477 63.454 26.346a90.059 90.059 0 0 1 26.284 63.607v3.29a90.13 90.13 0 0 1-6.831 34.423 89.953 89.953 0 0 1-19.453 29.183 89.708 89.708 0 0 1-29.113 19.499 89.544 89.544 0 0 1-34.341 6.848 89.633 89.633 0 0 1-63.455-26.347A90.06 90.06 0 0 1 0 93.243v-3.29a90.062 90.062 0 0 1 26.284-63.607A89.63 89.63 0 0 1 89.739 0Z" fill="#2676EE"/><mask id="mb" style="mask-type:luminance" maskUnits="userSpaceOnUse" x="0" y="0" width="180" height="184"><path d="M89.75 0a89.63 89.63 0 0 1 63.455 26.346 90.063 90.063 0 0 1 26.284 63.607v3.29a90.13 90.13 0 0 1-6.831 34.423 89.969 89.969 0 0 1-19.453 29.183 89.718 89.718 0 0 1-29.113 19.499 89.548 89.548 0 0 1-34.342 6.848 89.633 89.633 0 0 1-63.455-26.347A90.06 90.06 0 0 1 .012 93.243v-3.29a90.062 90.062 0 0 1 26.283-63.607A89.63 89.63 0 0 1 89.75 0Z" fill="#fff"/></mask><g mask="url(#mb)"><path opacity=".8" d="M168.463 65.284c-28.361-16.255-53.485-2.873-66.044 11.377-12.559 14.25-21.926 28.649-37.682 31.286-15.756 2.637-39.705-4.062-57.53 8.533-17.824 12.594-17.761 46.047-3.65 65.008C17.67 200.449 54.19 209.527 96.34 215.63a110.82 110.82 0 0 0 45.332-2.523l19.142-6.975c9.345-4.275 17.189-9.102 23.823-13.009 10.096-5.981 13.648-20.541 15.584-31.211a128.89 128.89 0 0 0-.716-48.265c-4.251-20.036-13.905-38.543-31.042-48.363Z" fill="#669DF0"/><path d="M117.66 32.286s15.316-5.47 25.97 10.01c10.654 15.479 6.252 23.732 13.25 34.701 6.998 10.97-4.095 24.806-.181 28.513 3.915 3.707 20.008 15.473 13.25 39.887-3.119 11.296 24.23 30.53 10.317 39.579-16.159 10.517-74.32 9.974-86.486 9.406-18.972-.893-54.205-5.705-62.034-21.395-7.83-15.691-10.401-35.438-2.981-45.466 7.42-10.027 12.25-13.818 6.16-24.848-3.15-5.705-21.524-24.788-2.553-35.311 8.51-4.721 1.277-24.197 12.124-34.001 11.943-10.8 18.249-1.376 27.614-9.81 10.63-9.593 42.027-16.264 45.55 8.735Z" fill="#000"/><path d="M102.995 123.277H74.128v37.768h28.867v-37.768Z" fill="#EFB2A2"/><path d="M102.995 135.46v-12.177H74.122v18.202c8.937 1.015 20.14-2.457 28.873-6.025Z" fill="#000"/><path d="M87.63 132.436c29.814 0 53.982-22.675 53.982-50.646 0-27.97-24.168-50.645-53.981-50.645-29.814 0-53.982 22.675-53.982 50.645 0 27.971 24.168 50.646 53.982 50.646Z" fill="#EFB2A2"/><path d="M100.272 85.268s13.064-25.96 33.33-6.375c0 0-11.497 27.849-33.33 6.375Z" fill="#fff"/><path d="M81.3 99.467a.504.504 0 0 1-.495-.586.507.507 0 0 1 .122-.26l5.602-6.314a.523.523 0 0 1 .36-.169.517.517 0 0 1 .374.145l5.68 5.596a.508.508 0 0 1-.71.725l-5.3-5.222-5.253 5.916a.518.518 0 0 1-.38.17ZM125.363 66.577a.435.435 0 0 1-.211-.048c-10.287-4.866-18.17-.079-18.249 0a.501.501 0 0 1-.563-.019.508.508 0 0 1 .027-.845c.338-.21 8.432-5.137 19.213-.03a.509.509 0 0 1 .1.855.506.506 0 0 1-.317.111v-.024ZM73.164 66.794a.523.523 0 0 1-.289-.09c-.072-.054-7.793-5.277-18.484-.99a.505.505 0 0 1-.636-.67.506.506 0 0 1 .263-.272c11.208-4.498 19.104.87 19.435 1.105a.5.5 0 0 1 .127.7.494.494 0 0 1-.416.217ZM33.673 89.904a.499.499 0 0 1-.494-.41c-1.048-5.609-9.498-8.766-9.588-8.796a.507.507 0 0 1 .35-.954c.367.133 9.082 3.387 10.238 9.563a.513.513 0 0 1-.404.603l-.102-.006Z" fill="#000"/><path d="M25.705 93.23a.5.5 0 0 1-.41-.21.508.508 0 0 1 .115-.707l7.227-5.204a.505.505 0 0 1 .705.12.508.508 0 0 1-.115.707L26 93.14a.529.529 0 0 1-.295.09Z" fill="#000"/><path d="M76.242 85.588s-13.774-25.585-33.493-5.433c0-.013 12.256 27.511 33.493 5.433Z" fill="#fff"/><path d="M133.602 78.893c-8.118-7.849-15.057-8.38-20.513-6.2a12.744 12.744 0 0 0-1.466 16.82 12.699 12.699 0 0 0 4.688 3.88c11.383-.192 17.291-14.5 17.291-14.5ZM76.296 85.57S68.31 70.785 55.818 72.578a12.755 12.755 0 0 0-.615 18.083 12.691 12.691 0 0 0 5.639 3.47c4.426-.14 9.6-2.458 15.454-8.561Z" fill="#000"/><path d="M110.619 103.186a119.06 119.06 0 0 0-30.83 11.984s21.236 4.878 30.83-11.984Z" fill="#430400"/><path d="M87.625 31.145c-29.813 0-54.693 19.82-53.982 50.652 0 1.002 10.142-8.313 15.364-14.695 5.222-6.38 4.818-21.395 26.355-13.112C96.9 62.273 110.391 42 110.391 42c2.18 13.113 10.009 12.89 19.333 18.963 9.323 6.073 11.912 17.459 8.654 28.627-1.301 4.45-3.041 18.184-1.933 21.269 4.035-7.093 5.161-20.46 5.161-29.062 0-27.976-24.169-50.652-53.981-50.652Z" fill="#000"/><path d="M102.995 148.265H74.128v12.78L3.144 169.63l.951 13.354 176.165 1.992 2.518-20.495-79.783-3.436v-12.78ZM157.223 85.262l-1.698 15.648a14.502 14.502 0 0 1-5.312 9.728 14.441 14.441 0 0 1-10.618 3.113l-1.404-.151a4.851 4.851 0 0 1-3.252-1.784 4.873 4.873 0 0 1-1.048-3.565l3.975-36.718a2.932 2.932 0 0 1 1.247-2.088 2.804 2.804 0 0 1 1.638-.526c.11-.006.221-.006.331 0a50.46 50.46 0 0 0-15.423-28.604 50.213 50.213 0 0 0-61.161-5.564 50.405 50.405 0 0 0-20.31 25.354 52.524 52.524 0 0 0-6.861 26.617 52.518 52.518 0 0 0 7.518 26.437l-5.306.574a14.432 14.432 0 0 1-10.618-3.114 14.51 14.51 0 0 1-5.312-9.727l-1.698-15.648a14.522 14.522 0 0 1 3.108-10.646 14.432 14.432 0 0 1 9.708-5.323l.765-.084a57.014 57.014 0 0 1 19.622-33.819 56.766 56.766 0 0 1 36.754-13.165 56.767 56.767 0 0 1 36.56 13.694 57.018 57.018 0 0 1 19.135 34.1 14.46 14.46 0 0 1 7.495 5.935 14.515 14.515 0 0 1 2.165 9.326Z" fill="#EE26C2"/><path d="M116.425 130.594c-5.956 0-12.744-1.424-20.308-4.274l1.541-4.123c13.1 4.932 23.411 5.3 30.644 1.105 7.83-4.552 9.323-13.179 9.341-13.282l4.337.688c-.066.435-1.771 10.716-11.407 16.355-4.011 2.354-8.739 3.531-14.148 3.531Z" fill="#EE26C2"/><path d="m95.177 129.073-4.722-1.841a5.024 5.024 0 0 1-2.771-2.662 5.04 5.04 0 0 1 .968-5.501 4.998 4.998 0 0 1 3.514-1.549 5 5 0 0 1 1.927.342l4.722 1.841a5.005 5.005 0 0 1 2.773 2.661 5.02 5.02 0 0 1 .082 3.847 5.036 5.036 0 0 1-2.655 2.781 5.015 5.015 0 0 1-3.838.081Z" fill="#000"/></g></g><defs><clipPath id="ma"><path fill="#fff" d="M0 0h180v183H0z"/></clipPath></defs></svg><svg fill="none" viewBox="0 0 256 314" id="img-files" xmlns="http://www.w3.org/2000/svg"><circle cx="60.5" cy="6.5" r="6.5" fill="#669DF0"/><circle cx="35.5" cy="115.5" r="4.5" fill="#2676EE"/><circle cx="212.5" cy="87.5" r="8.5" fill="#2676EE"/><path stroke="#000" stroke-width="2" stroke-linecap="round" d="M106 61v12M106 85v12M124 79h-12M100 79H88M158 1v12M158 25v12M176 19h-12M152 19h-12"/><ellipse cx="133" cy="289.5" rx="99" ry="24.5" fill="#F4D4ED"/><g clip-path="url(#na)"><path d="m199.236 207.471-134.884 15.72a1.63 1.63 0 0 1-1.805-1.435l-8.988-76.775a1.629 1.629 0 0 1 .822-1.611c.186-.104.392-.17.604-.194l2.555-.299a1.623 1.623 0 0 0 1.383-1.197l1.749-6.528c.051-.204.144-.395.272-.562a3.743 3.743 0 0 1 2.473-1.358l34.002-3.959a3.733 3.733 0 0 1 2.21.419c.184.106.343.248.471.417l4.844 6.44a1.62 1.62 0 0 0 1.489.639l83.44-9.717a1.635 1.635 0 0 1 1.809 1.428l8.985 76.77a1.63 1.63 0 0 1-1.431 1.802Z" fill="#000" stroke="#000" stroke-miterlimit="10"/><path d="M200.521 206.74 71.886 241.208a2.946 2.946 0 0 1-3.607-2.088l-19.324-72.119a2.953 2.953 0 0 1 .293-2.238 2.941 2.941 0 0 1 1.787-1.373l.349-.094a2.962 2.962 0 0 0 2.166-2.504l.636-5.458a2.871 2.871 0 0 1 .772-1.674 3.767 3.767 0 0 1 1.706-1l33.063-8.86a3.804 3.804 0 0 1 1.364-.11c.64.079 1.234.371 1.687.831l4.904 4.843a2.945 2.945 0 0 0 2.832.752l79.151-21.209a2.94 2.94 0 0 1 2.235.296 2.955 2.955 0 0 1 1.373 1.792l19.328 72.134a2.963 2.963 0 0 1-.293 2.238 2.945 2.945 0 0 1-1.787 1.373Z" fill="#EE26C2"/><mask id="nb" style="mask-type:luminance" maskUnits="userSpaceOnUse" x="48" y="128" width="155" height="114"><path d="M200.521 206.74 71.886 241.208a2.946 2.946 0 0 1-3.607-2.088l-19.324-72.119a2.953 2.953 0 0 1 .293-2.238 2.941 2.941 0 0 1 1.787-1.373l.349-.094a2.962 2.962 0 0 0 2.166-2.504l.636-5.458a2.871 2.871 0 0 1 .772-1.674 3.767 3.767 0 0 1 1.706-1l33.063-8.86a3.804 3.804 0 0 1 1.364-.11c.64.079 1.234.371 1.687.831l4.904 4.843a2.945 2.945 0 0 0 2.832.752l79.151-21.209a2.94 2.94 0 0 1 2.235.296 2.955 2.955 0 0 1 1.373 1.792l19.328 72.134a2.963 2.963 0 0 1-.293 2.238 2.945 2.945 0 0 1-1.787 1.373Z" fill="#fff"/></mask><g mask="url(#nb)"><path opacity=".1" d="M200.521 206.74 71.886 241.208a2.946 2.946 0 0 1-3.607-2.088l-19.324-72.119a2.953 2.953 0 0 1 .293-2.238 2.941 2.941 0 0 1 1.787-1.373l.349-.094a2.962 2.962 0 0 0 2.166-2.504l.636-5.458a2.871 2.871 0 0 1 .772-1.674 3.767 3.767 0 0 1 1.706-1l33.063-8.86a3.804 3.804 0 0 1 1.364-.11c.64.079 1.234.371 1.687.831l4.904 4.843a2.945 2.945 0 0 0 2.832.752l79.151-21.209a2.94 2.94 0 0 1 2.235.296 2.955 2.955 0 0 1 1.373 1.792l19.328 72.134a2.963 2.963 0 0 1-.293 2.238 2.945 2.945 0 0 1-1.787 1.373Z" fill="#000"/></g><path d="M200.521 206.74 71.886 241.208a2.946 2.946 0 0 1-3.607-2.088l-19.324-72.119a2.953 2.953 0 0 1 .293-2.238 2.941 2.941 0 0 1 1.787-1.373l.349-.094a2.962 2.962 0 0 0 2.166-2.504l.636-5.458a2.871 2.871 0 0 1 .772-1.674 3.767 3.767 0 0 1 1.706-1l33.063-8.86a3.804 3.804 0 0 1 1.364-.11c.64.079 1.234.371 1.687.831l4.904 4.843a2.945 2.945 0 0 0 2.832.752l79.151-21.209a2.94 2.94 0 0 1 2.235.296 2.955 2.955 0 0 1 1.373 1.792l19.328 72.134a2.963 2.963 0 0 1-.293 2.238 2.945 2.945 0 0 1-1.787 1.373Z" stroke="#000" stroke-miterlimit="10"/><path d="m84.473 154.169-20.585 5.516a1.922 1.922 0 0 1-2.4-2.109 1.923 1.923 0 0 1 .732-1.276c.2-.153.429-.266.672-.331l20.585-5.516a1.919 1.919 0 0 1 1.46.193 1.93 1.93 0 0 1 .945 1.919 1.922 1.922 0 0 1-1.41 1.604Z" fill="#000"/><path d="M203.893 219.325 75.258 253.792a2.95 2.95 0 0 1-3.607-2.087l-19.325-72.119a2.953 2.953 0 0 1 .294-2.238 2.939 2.939 0 0 1 1.787-1.374l.349-.093a2.953 2.953 0 0 0 2.165-2.504l.638-5.453a2.845 2.845 0 0 1 .772-1.674 3.713 3.713 0 0 1 1.706-1.001L93.1 156.39a3.76 3.76 0 0 1 1.365-.11 2.842 2.842 0 0 1 1.688.835l4.905 4.848a2.95 2.95 0 0 0 2.832.752l79.151-21.208a2.945 2.945 0 0 1 3.608 2.087l19.324 72.119a2.95 2.95 0 0 1-2.08 3.612Z" fill="#000" stroke="#000" stroke-miterlimit="10"/><path d="m90.35 136.656-21.101 2.937a1.927 1.927 0 0 1-2.17-1.641 1.926 1.926 0 0 1 1.643-2.169l21.096-2.935a1.928 1.928 0 0 1 2.127 2.39 1.921 1.921 0 0 1-1.594 1.418Z" fill="#EE26C2"/><path opacity=".5" d="m90.35 136.656-21.101 2.937a1.927 1.927 0 0 1-2.17-1.641 1.926 1.926 0 0 1 1.643-2.169l21.096-2.935a1.928 1.928 0 0 1 2.127 2.39 1.921 1.921 0 0 1-1.594 1.418Z" fill="#fff"/><path d="m87.846 166.759-20.584 5.515a1.906 1.906 0 0 1-1.458-.194 1.907 1.907 0 0 1-.893-1.17 1.927 1.927 0 0 1 1.353-2.357l20.585-5.516a1.923 1.923 0 0 1 2.356 1.363 1.922 1.922 0 0 1-1.358 2.359Z" fill="#EE26C2"/><path opacity=".5" d="m87.846 166.759-20.584 5.515a1.906 1.906 0 0 1-1.458-.194 1.907 1.907 0 0 1-.893-1.17 1.927 1.927 0 0 1 1.353-2.357l20.585-5.516a1.923 1.923 0 0 1 2.356 1.363 1.922 1.922 0 0 1-1.358 2.359Z" fill="#fff"/><path d="m193.059 162.07-137.05 36.723a2.763 2.763 0 0 0-1.951 3.386l22.265 83.097a2.764 2.764 0 0 0 3.383 1.957l137.05-36.722a2.764 2.764 0 0 0 1.951-3.387l-22.266-83.096a2.764 2.764 0 0 0-3.382-1.958Z" fill="#2676EE"/><path d="m193.059 162.07-137.05 36.723a2.763 2.763 0 0 0-1.951 3.386l22.265 83.097a2.764 2.764 0 0 0 3.383 1.957l137.05-36.722a2.764 2.764 0 0 0 1.951-3.387l-22.266-83.096a2.764 2.764 0 0 0-3.382-1.958Z" stroke="#000" stroke-miterlimit="10"/><path d="m154.37 207.097-42.338 11.344a1.432 1.432 0 0 0-1.011 1.755l5.8 21.644a1.43 1.43 0 0 0 1.752 1.014l42.339-11.344a1.431 1.431 0 0 0 1.01-1.754l-5.799-21.645a1.431 1.431 0 0 0-1.753-1.014Z" fill="#000" stroke="#000" stroke-miterlimit="10"/><path d="m154.37 207.097-42.338 11.344a1.432 1.432 0 0 0-1.011 1.755l1.247 4.654c.205.764.99 1.218 1.753 1.014l42.338-11.345a1.43 1.43 0 0 0 1.011-1.754l-1.247-4.654a1.431 1.431 0 0 0-1.753-1.014Z" fill="#fff" stroke="#000" stroke-miterlimit="10"/><path d="m77.238 132.148 3.24.534s.29-.779-.437-.883l-1.127-.399" fill="#fff"/><path d="m77.238 132.148 3.24.534s.29-.779-.437-.883l-1.127-.399" stroke="#000" stroke-linejoin="round"/></g><defs><clipPath id="na"><path fill="#fff" transform="rotate(-15 569.34 74.955)" d="M0 0h222.618v157.651H0z"/></clipPath></defs></svg><svg fill="none" viewBox="0 0 219 30" id="logo" xmlns="http://www.w3.org/2000/svg"><path d="M5.347 7.794v10.694h5.347c.733 0 1.422-.137 2.068-.41a5.547 5.547 0 0 0 1.696-1.155 5.286 5.286 0 0 0 1.136-1.695 5.187 5.187 0 0 0 .429-2.087c0-.733-.143-1.422-.429-2.068a5.233 5.233 0 0 0-2.832-2.85 5.055 5.055 0 0 0-2.068-.43H5.347Zm0 21.37H0V2.447h10.694c.981 0 1.925.13 2.832.391a9.99 9.99 0 0 1 2.534 1.08c.795.46 1.515 1.02 2.161 1.677a10.09 10.09 0 0 1 1.677 2.162c.472.795.832 1.645 1.08 2.552.261.907.392 1.85.392 2.832 0 1.466-.28 2.85-.839 4.155a10.823 10.823 0 0 1-2.291 3.39 10.766 10.766 0 0 1-3.41 2.292c-1.291.559-2.67.838-4.136.838H5.347v5.348ZM29.977 3.788c0 .472-.093.913-.28 1.323-.173.41-.415.77-.726 1.08-.31.299-.677.541-1.1.727-.41.174-.85.261-1.322.261-.472 0-.92-.087-1.341-.26a3.84 3.84 0 0 1-1.081-.727 3.84 3.84 0 0 1-.727-1.08c-.173-.41-.26-.852-.26-1.324 0-.46.087-.894.26-1.304A3.38 3.38 0 0 1 25.207.677c.423-.186.87-.28 1.342-.28.472 0 .913.094 1.323.28.422.174.788.416 1.099.727.31.298.553.658.727 1.08.186.41.28.845.28 1.304Zm-.875 25.376h-5.124V9.21h5.123v19.954ZM38.082 29.164h-5.087V9.21h1.23l1.677 1.938a8.798 8.798 0 0 1 2.776-1.715 8.839 8.839 0 0 1 3.26-.614c1.217 0 2.366.236 3.447.708 1.08.46 2.024 1.099 2.832 1.919a8.818 8.818 0 0 1 1.9 2.85 8.562 8.562 0 0 1 .708 3.466v11.402H45.74V17.762c0-.522-.1-1.013-.298-1.472a3.81 3.81 0 0 0-2.031-2.05 3.669 3.669 0 0 0-1.472-.298A3.85 3.85 0 0 0 39.2 15.06a3.808 3.808 0 0 0-.82 1.23c-.198.46-.297.95-.297 1.472v11.402ZM59.582 29.164h-5.124V1.274h5.124V18.86l7.582-9.614h5.85l-6.614 8.31 6.614 11.607h-5.85l-4.043-7.248-3.54 4.695v2.553Z" fill="#EE26C2"/><path fill-rule="evenodd" clip-rule="evenodd" d="M99.42 3.175A14.508 14.508 0 0 0 88.323.625a14.384 14.384 0 0 0-3.522 1.081 14.705 14.705 0 0 0-3.162 1.945 14.77 14.77 0 0 0-2.577 2.705A14.435 14.435 0 0 0 77.24 9.76a14.432 14.432 0 0 0-.877 3.76 15.25 15.25 0 0 0 .152 3.733 14.96 14.96 0 0 0 1.344 4.043 14.502 14.502 0 0 0 10.122 7.823 14.508 14.508 0 0 0 16.277-8.596l-5.2-2.184a8.883 8.883 0 0 1-4.464 4.62l-.018-.096a8.918 8.918 0 0 1-2.402.754 8.894 8.894 0 0 1-3.228-.058 8.869 8.869 0 0 1 .495-17.402 8.85 8.85 0 0 1 7.45 2.23 8.872 8.872 0 0 1 2.147 3.216l5.922-2.211.028.075c.84-.93 1.734-2.011 2.654-3.15-1.822-.105-3.551-.176-5.015-.14.4-1.513.736-3.397 1.056-5.404-1.568.827-3.045 1.635-4.263 2.402Z" fill="#000"/><path d="M114.835 29.036h-5.136V.884h5.136v8.895c.615-.464 1.249-.79 1.901-.978.652-.2 1.317-.3 1.994-.3a8.65 8.65 0 0 1 3.5.714 8.606 8.606 0 0 1 2.841 1.937 8.888 8.888 0 0 1 1.919 2.877 8.633 8.633 0 0 1 .715 3.498v11.509h-5.174v-11.51h.038c0-.526-.101-1.02-.301-1.485a3.855 3.855 0 0 0-2.051-2.068c-.464-.201-.96-.301-1.487-.301a3.89 3.89 0 0 0-2.766 1.128 3.836 3.836 0 0 0-.827 1.241c-.201.464-.302.96-.302 1.486v11.509ZM137.433 3.423c0 .476-.094.921-.282 1.335-.176.414-.42.777-.734 1.09-.313.301-.683.546-1.11.734a3.386 3.386 0 0 1-1.336.263 3.53 3.53 0 0 1-1.355-.263 3.882 3.882 0 0 1-1.091-.733 3.875 3.875 0 0 1-.734-1.091 3.392 3.392 0 0 1-.263-1.335c0-.464.088-.903.263-1.317a3.416 3.416 0 0 1 1.825-1.824A3.326 3.326 0 0 1 133.971 0c.477 0 .922.094 1.336.282.427.176.797.42 1.11.734.314.3.558.664.734 1.09.188.414.282.853.282 1.317Zm-.884 25.613h-5.174V8.895h5.174v20.14ZM158.093 12.9l-3.763 3.78a4.924 4.924 0 0 0-.772-1.41 4.98 4.98 0 0 0-1.11-1.072 4.625 4.625 0 0 0-1.317-.658 4.845 4.845 0 0 0-1.467-.226 4.72 4.72 0 0 0-1.995.433 4.929 4.929 0 0 0-1.618 1.222 5.8 5.8 0 0 0-1.073 1.843c-.263.715-.395 1.505-.395 2.37 0 .702.132 1.36.395 1.974a5.28 5.28 0 0 0 1.073 1.618 5.109 5.109 0 0 0 1.618 1.09 5.1 5.1 0 0 0 1.995.395c.501 0 .984-.069 1.448-.207a5.274 5.274 0 0 0 1.299-.583 4.921 4.921 0 0 0 1.091-.94c.326-.376.59-.79.79-1.241l3.763 3.78a9.927 9.927 0 0 1-1.655 1.824c-.615.54-1.286.997-2.014 1.373a9.555 9.555 0 0 1-2.276.846c-.791.2-1.606.301-2.446.301-1.418 0-2.754-.263-4.008-.79a10.667 10.667 0 0 1-3.274-2.2 10.444 10.444 0 0 1-2.202-3.253 9.9 9.9 0 0 1-.809-3.987c0-1.542.27-2.984.809-4.326.54-1.341 1.274-2.507 2.202-3.497a10.532 10.532 0 0 1 3.274-2.37 9.478 9.478 0 0 1 4.008-.865c.84 0 1.662.107 2.464.32a9.546 9.546 0 0 1 2.315.94c.74.401 1.417.896 2.032 1.486a9.146 9.146 0 0 1 1.618 2.03ZM165.789 29.036h-5.175V.884h5.175v17.752l7.658-9.703h5.908l-6.68 8.387 6.68 11.716h-5.908l-4.083-7.316-3.575 4.74v2.576ZM188.763 24.109c.201.063.401.106.602.131.201.013.401.02.602.02a5.06 5.06 0 0 0 1.449-.208 5.268 5.268 0 0 0 1.298-.583 4.975 4.975 0 0 0 1.882-2.181l3.763 3.78a9.968 9.968 0 0 1-1.656 1.824c-.614.54-1.286.997-2.013 1.373a9.546 9.546 0 0 1-2.277.846c-.79.2-1.605.301-2.446.301-1.417 0-2.753-.263-4.008-.79a10.25 10.25 0 0 1-3.274-2.2 10.425 10.425 0 0 1-2.201-3.348c-.539-1.303-.809-2.733-.809-4.287 0-1.592.27-3.047.809-4.363.539-1.316 1.273-2.439 2.201-3.366a10.148 10.148 0 0 1 3.274-2.163 10.471 10.471 0 0 1 4.008-.771 10.162 10.162 0 0 1 4.742 1.166c.727.376 1.405.84 2.032 1.392a9.968 9.968 0 0 1 1.656 1.824l-9.634 11.603Zm2.634-10.588a2.965 2.965 0 0 0-.715-.169 6.479 6.479 0 0 0-.715-.038c-.702 0-1.367.132-1.994.395a4.738 4.738 0 0 0-1.619 1.091 5.248 5.248 0 0 0-1.072 1.73c-.263.665-.395 1.417-.395 2.257 0 .188.006.401.019.64.025.237.056.482.094.733.05.238.106.47.169.695.063.226.144.427.245.602l5.983-7.936ZM206.13 29.036h-5.137V8.896h1.242l1.694 1.955a8.875 8.875 0 0 1 2.803-1.73 8.93 8.93 0 0 1 3.293-.62 8.61 8.61 0 0 1 3.481.714 8.822 8.822 0 0 1 2.86 1.937 8.904 8.904 0 0 1 1.919 2.877 8.633 8.633 0 0 1 .715 3.498v11.509h-5.137v-11.51c0-.526-.1-1.02-.301-1.485-.2-.476-.476-.89-.828-1.241a3.903 3.903 0 0 0-1.223-.827c-.464-.201-.959-.301-1.486-.301-.54 0-1.048.1-1.524.3-.477.201-.891.477-1.242.828a3.855 3.855 0 0 0-.828 1.241c-.201.464-.301.96-.301 1.486v11.509Z" fill="#000"/></svg></svg>