<svg width="180" height="183" fill="none" xmlns="http://www.w3.org/2000/svg"><g clip-path="url(#a)"><path d="M89.739 0a89.63 89.63 0 0 1 63.454 26.346 90.059 90.059 0 0 1 26.284 63.607v3.29a90.13 90.13 0 0 1-6.831 34.423 89.953 89.953 0 0 1-19.453 29.183 89.708 89.708 0 0 1-29.113 19.499 89.544 89.544 0 0 1-34.341 6.848 89.633 89.633 0 0 1-63.455-26.347A90.06 90.06 0 0 1 0 93.243v-3.29a90.062 90.062 0 0 1 26.284-63.607A89.63 89.63 0 0 1 89.739 0Z" fill="#2676EE"/><mask id="b" style="mask-type:luminance" maskUnits="userSpaceOnUse" x="0" y="0" width="180" height="184"><path d="M89.75 0a89.63 89.63 0 0 1 63.455 26.346 90.063 90.063 0 0 1 26.284 63.607v3.29a90.13 90.13 0 0 1-6.831 34.423 89.969 89.969 0 0 1-19.453 29.183 89.718 89.718 0 0 1-29.113 19.499 89.548 89.548 0 0 1-34.342 6.848 89.633 89.633 0 0 1-63.455-26.347A90.06 90.06 0 0 1 .012 93.243v-3.29a90.062 90.062 0 0 1 26.283-63.607A89.63 89.63 0 0 1 89.75 0Z" fill="#fff"/></mask><g mask="url(#b)"><path opacity=".8" d="M168.463 65.284c-28.361-16.255-53.485-2.873-66.044 11.377-12.559 14.25-21.926 28.649-37.682 31.286-15.756 2.637-39.705-4.062-57.53 8.533-17.824 12.594-17.761 46.047-3.65 65.008C17.67 200.449 54.19 209.527 96.34 215.63a110.82 110.82 0 0 0 45.332-2.523l19.142-6.975c9.345-4.275 17.189-9.102 23.823-13.009 10.096-5.981 13.648-20.541 15.584-31.211a128.89 128.89 0 0 0-.716-48.265c-4.251-20.036-13.905-38.543-31.042-48.363Z" fill="#669DF0"/><path d="M117.66 32.286s15.316-5.47 25.97 10.01c10.654 15.479 6.252 23.732 13.25 34.701 6.998 10.97-4.095 24.806-.181 28.513 3.915 3.707 20.008 15.473 13.25 39.887-3.119 11.296 24.23 30.53 10.317 39.579-16.159 10.517-74.32 9.974-86.486 9.406-18.972-.893-54.205-5.705-62.034-21.395-7.83-15.691-10.401-35.438-2.981-45.466 7.42-10.027 12.25-13.818 6.16-24.848-3.15-5.705-21.524-24.788-2.553-35.311 8.51-4.721 1.277-24.197 12.124-34.001 11.943-10.8 18.249-1.376 27.614-9.81 10.63-9.593 42.027-16.264 45.55 8.735Z" fill="#000"/><path d="M102.995 123.277H74.128v37.768h28.867v-37.768Z" fill="#EFB2A2"/><path d="M102.995 135.46v-12.177H74.122v18.202c8.937 1.015 20.14-2.457 28.873-6.025Z" fill="#000"/><path d="M87.63 132.436c29.814 0 53.982-22.675 53.982-50.646 0-27.97-24.168-50.645-53.981-50.645-29.814 0-53.982 22.675-53.982 50.645 0 27.971 24.168 50.646 53.982 50.646Z" fill="#EFB2A2"/><path d="M100.272 85.268s13.064-25.96 33.33-6.375c0 0-11.497 27.849-33.33 6.375Z" fill="#fff"/><path d="M81.3 99.467a.504.504 0 0 1-.495-.586.507.507 0 0 1 .122-.26l5.602-6.314a.523.523 0 0 1 .36-.169.517.517 0 0 1 .374.145l5.68 5.596a.508.508 0 0 1-.71.725l-5.3-5.222-5.253 5.916a.518.518 0 0 1-.38.17Zm44.063-32.89a.435.435 0 0 1-.211-.048c-10.287-4.866-18.17-.079-18.249 0a.501.501 0 0 1-.563-.019.508.508 0 0 1 .027-.845c.338-.21 8.432-5.137 19.213-.03a.509.509 0 0 1 .1.855.506.506 0 0 1-.317.111v-.024Zm-52.199.217a.523.523 0 0 1-.289-.09c-.072-.054-7.793-5.277-18.484-.99a.505.505 0 0 1-.636-.67.506.506 0 0 1 .263-.272c11.208-4.498 19.104.87 19.435 1.105a.5.5 0 0 1 .127.7.494.494 0 0 1-.416.217Zm-39.491 23.11a.499.499 0 0 1-.494-.41c-1.048-5.609-9.498-8.766-9.588-8.796a.507.507 0 0 1 .35-.954c.367.133 9.082 3.387 10.238 9.563a.513.513 0 0 1-.404.603l-.102-.006Z" fill="#000"/><path d="M25.705 93.23a.5.5 0 0 1-.41-.21.508.508 0 0 1 .115-.707l7.227-5.204a.505.505 0 0 1 .705.12.508.508 0 0 1-.115.707L26 93.14a.529.529 0 0 1-.295.09Z" fill="#000"/><path d="M76.242 85.588s-13.774-25.585-33.493-5.433c0-.013 12.256 27.511 33.493 5.433Z" fill="#fff"/><path d="M133.602 78.893c-8.118-7.849-15.057-8.38-20.513-6.2a12.744 12.744 0 0 0-1.466 16.82 12.699 12.699 0 0 0 4.688 3.88c11.383-.192 17.291-14.5 17.291-14.5ZM76.296 85.57S68.31 70.785 55.818 72.578a12.755 12.755 0 0 0-.615 18.083 12.691 12.691 0 0 0 5.639 3.47c4.426-.14 9.6-2.458 15.454-8.561Z" fill="#000"/><path d="M110.619 103.186a119.06 119.06 0 0 0-30.83 11.984s21.236 4.878 30.83-11.984Z" fill="#430400"/><path d="M87.625 31.145c-29.813 0-54.693 19.82-53.982 50.652 0 1.002 10.142-8.313 15.364-14.695 5.222-6.38 4.818-21.395 26.355-13.112C96.9 62.273 110.391 42 110.391 42c2.18 13.113 10.009 12.89 19.333 18.963 9.323 6.073 11.912 17.459 8.654 28.627-1.301 4.45-3.041 18.184-1.933 21.269 4.035-7.093 5.161-20.46 5.161-29.062 0-27.976-24.169-50.652-53.981-50.652Z" fill="#000"/><path d="M102.995 148.265H74.128v12.78L3.144 169.63l.951 13.354 176.165 1.992 2.518-20.495-79.783-3.436v-12.78Zm54.228-63.003-1.698 15.648a14.502 14.502 0 0 1-5.312 9.728 14.441 14.441 0 0 1-10.618 3.113l-1.404-.151a4.851 4.851 0 0 1-3.252-1.784 4.873 4.873 0 0 1-1.048-3.565l3.975-36.718a2.932 2.932 0 0 1 1.247-2.088 2.804 2.804 0 0 1 1.638-.526c.11-.006.221-.006.331 0a50.46 50.46 0 0 0-15.423-28.604 50.213 50.213 0 0 0-61.161-5.564 50.405 50.405 0 0 0-20.31 25.354 52.524 52.524 0 0 0-6.861 26.617 52.518 52.518 0 0 0 7.518 26.437l-5.306.574a14.432 14.432 0 0 1-10.618-3.114 14.51 14.51 0 0 1-5.312-9.727l-1.698-15.648a14.522 14.522 0 0 1 3.108-10.646 14.432 14.432 0 0 1 9.708-5.323l.765-.084a57.014 57.014 0 0 1 19.622-33.819 56.766 56.766 0 0 1 36.754-13.165 56.767 56.767 0 0 1 36.56 13.694 57.018 57.018 0 0 1 19.135 34.1 14.46 14.46 0 0 1 7.495 5.935 14.515 14.515 0 0 1 2.165 9.326Z" fill="#EE26C2"/><path d="M116.425 130.594c-5.956 0-12.744-1.424-20.308-4.274l1.541-4.123c13.1 4.932 23.411 5.3 30.644 1.105 7.83-4.552 9.323-13.179 9.341-13.282l4.337.688c-.066.435-1.771 10.716-11.407 16.355-4.011 2.354-8.739 3.531-14.148 3.531Z" fill="#EE26C2"/><path d="m95.177 129.073-4.722-1.841a5.024 5.024 0 0 1-2.771-2.662 5.04 5.04 0 0 1 .968-5.501 4.998 4.998 0 0 1 3.514-1.549 5 5 0 0 1 1.927.342l4.722 1.841a5.005 5.005 0 0 1 2.773 2.661 5.02 5.02 0 0 1 .082 3.847 5.036 5.036 0 0 1-2.655 2.781 5.015 5.015 0 0 1-3.838.081Z" fill="#000"/></g></g><defs><clipPath id="a"><path fill="#fff" d="M0 0h180v183H0z"/></clipPath></defs></svg>