<?xml version="1.0" encoding="utf-8"?><svg viewBox="0 0 256 314" xmlns="http://www.w3.org/2000/svg" xmlns:xlink="http://www.w3.org/1999/xlink"><style>:root>svg{display:none}:root>svg:target{display:block}</style><svg fill="none" viewBox="0 0 24 24" id="icon-convert" xmlns="http://www.w3.org/2000/svg"><path d="M12 5.56h10" stroke="#fff" stroke-width="1.5" stroke-miterlimit="10" stroke-linecap="round" stroke-linejoin="round"/><path d="M15.65 10.5h-1.43c-1.78 0-2.22-.44-2.22-2.2V4.2c0-1.76.44-2.2 2.22-2.2h5.56C21.56 2 22 2.44 22 4.2v4.11c0 1.76-.44 2.2-2.22 2.2" stroke="#fff" stroke-width="1.5" stroke-linecap="round" stroke-linejoin="round"/><path d="M2 17.06h10" stroke="#fff" stroke-width="1.5" stroke-miterlimit="10" stroke-linecap="round" stroke-linejoin="round"/><path d="M5.5 22H4.22C2.44 22 2 21.56 2 19.8v-4.1c0-1.76.44-2.2 2.22-2.2h5.56c1.78 0 2.22.44 2.22 2.2v4.11c0 1.76-.44 2.2-2.22 2.2M22 15c0 3.87-3.13 7-7 7l1.05-1.75M2 9c0-3.87 3.13-7 7-7L7.95 3.75" stroke="#fff" stroke-width="1.5" stroke-linecap="round" stroke-linejoin="round"/></svg><svg fill="none" viewBox="0 0 24 24" id="icon-email" xmlns="http://www.w3.org/2000/svg"><path d="M2 8.5c0-3.5 2-5 5-5h10c3 0 5 1.5 5 5v7c0 3.5-2 5-5 5H7" stroke="#292D32" stroke-width="1.5" stroke-miterlimit="10" stroke-linecap="round" stroke-linejoin="round"/><path d="m17 9-3.13 2.5c-1.03.82-2.72.82-3.75 0L7 9M2 16.5h6M2 12.5h3" stroke="#292D32" stroke-width="1.5" stroke-miterlimit="10" stroke-linecap="round" stroke-linejoin="round"/></svg><svg fill="none" viewBox="0 0 24 24" id="icon-file" xmlns="http://www.w3.org/2000/svg"><path d="M8 2h9c2 0 3 1 3 3v1.38" stroke="#292D32" stroke-width="1.5" stroke-miterlimit="10" stroke-linecap="round" stroke-linejoin="round"/><path d="M2 13.02V7c0-4 1-5 5-5h1.5c1.5 0 1.83.44 2.4 1.2l1.5 2c.38.5.6.8 1.6.8h3c4 0 5 1 5 5M22 14.99V17c0 4-1 5-5 5H7c-4 0-5-1-5-5" stroke="#292D32" stroke-width="1.5" stroke-miterlimit="10" stroke-linecap="round" stroke-linejoin="round"/><path d="m6.241 11.636.964 1.7.971-1.7h.93l-1.362 2.182L9.116 16h-.929l-.982-1.63-.98 1.63h-.932l1.358-2.182-1.341-2.182h.931ZM9.977 16v-4.364h.816v.71h.054c.09-.24.24-.427.446-.562.206-.136.453-.204.741-.204.292 0 .536.068.733.204.199.136.346.324.44.563h.046c.104-.233.27-.419.497-.557.227-.14.498-.21.813-.21.395 0 .718.124.968.372.252.248.378.622.378 1.122V16h-.85v-2.847c0-.295-.08-.509-.24-.642a.879.879 0 0 0-.578-.198c-.276 0-.491.085-.644.255-.154.169-.23.386-.23.65V16h-.847v-2.9a.761.761 0 0 0-.222-.572.791.791 0 0 0-.576-.215.825.825 0 0 0-.446.127.938.938 0 0 0-.327.35 1.07 1.07 0 0 0-.122.52V16h-.85ZM17.897 10.182V16h-.85v-5.818h.85Z" fill="#000"/></svg><svg fill="none" viewBox="0 0 24 24" id="icon-language" xmlns="http://www.w3.org/2000/svg"><path d="M12 22c5.523 0 10-4.477 10-10S17.523 2 12 2 2 6.477 2 12s4.477 10 10 10Z" stroke="#292D32" stroke-width="1.5" stroke-linecap="round" stroke-linejoin="round"/><path d="M8 3h1a28.424 28.424 0 0 0 0 18H8M15 3a28.424 28.424 0 0 1 0 18" stroke="#292D32" stroke-width="1.5" stroke-linecap="round" stroke-linejoin="round"/><path d="M3 16v-1a28.424 28.424 0 0 0 18 0v1M3 9a28.424 28.424 0 0 1 18 0" stroke="#292D32" stroke-width="1.5" stroke-linecap="round" stroke-linejoin="round"/></svg><svg fill="none" viewBox="0 0 24 24" id="icon-load" xmlns="http://www.w3.org/2000/svg"><path d="m17 12-5 5-5-5M12 5v11" stroke="#292D32" stroke-width="1.5" stroke-miterlimit="10" stroke-linecap="round" stroke-linejoin="round"/><path stroke="#292D32" stroke-width="1.5" stroke-linecap="round" d="M5.75 18.25h12.5"/></svg><svg fill="none" viewBox="0 0 24 24" id="icon-load-file" xmlns="http://www.w3.org/2000/svg"><path d="M12.06 16.5v-5M14.5 14h-5M2 13.02V7c0-4 1-5 5-5h1.5c1.5 0 1.83.44 2.4 1.2l1.5 2c.38.5.6.8 1.6.8h3c4 0 5 1 5 5M22 14.99V17c0 4-1 5-5 5H7c-4 0-5-1-5-5" stroke="#292D32" stroke-width="1.5" stroke-miterlimit="10" stroke-linecap="round" stroke-linejoin="round"/></svg><svg fill="none" viewBox="0 0 24 24" id="icon-load-img" xmlns="http://www.w3.org/2000/svg"><path d="M2 12.99V15c0 5 2 7 7 7h6c5 0 7-2 7-7V9c0-5-2-7-7-7H9C4 2 2 4 2 9" stroke="#292D32" stroke-width="1.5" stroke-linecap="round" stroke-linejoin="round"/><path d="M11 8c0 1.1-.9 2-2 2s-2-.9-2-2 .9-2 2-2M2.67 18.95l4.93-3.31c.79-.53 1.93-.47 2.64.14l.33.29c.78.67 2.04.67 2.82 0l4.16-3.57c.78-.67 2.04-.67 2.82 0L22 13.9" stroke="#292D32" stroke-width="1.5" stroke-linecap="round" stroke-linejoin="round"/></svg><svg fill="none" viewBox="0 0 24 24" id="icon-login" xmlns="http://www.w3.org/2000/svg"><path d="M2 12h12.88M12.65 8.65 16 12l-3.35 3.35M21.5 13v2.26c0 4.47-1.79 6.26-6.26 6.26h-.13c-4.02 0-5.87-1.45-6.2-4.99M8.9 7.56c.31-3.6 2.16-5.07 6.21-5.07h.13c4.47 0 6.26 1.79 6.26 6.26" stroke="#292D32" stroke-width="1.5" stroke-linecap="round" stroke-linejoin="round"/></svg><svg fill="none" viewBox="0 0 24 24" id="icon-refresh" xmlns="http://www.w3.org/2000/svg"><path d="M14.55 21.67C18.84 20.54 22 16.64 22 12c0-5.52-4.44-10-10-10C5.33 2 2 7.56 2 7.56m0 0V3m0 4.56H6.44" stroke="#fff" stroke-width="1.5" stroke-linecap="round" stroke-linejoin="round"/><path d="M2 12c0 5.52 4.48 10 10 10" stroke="#fff" stroke-width="1.5" stroke-linecap="round" stroke-linejoin="round" stroke-dasharray="3 3"/></svg><svg fill="none" viewBox="0 0 24 24" id="icon-send" xmlns="http://www.w3.org/2000/svg"><path d="M15.89 3.49c3.81-1.27 5.88.81 4.62 4.62l-2.83 8.49c-1.9 5.71-5.02 5.71-6.92 0l-.84-2.52-2.52-.84c-5.71-1.9-5.71-5.01 0-6.92L12 4.79M10.11 13.65l3.58-3.59" stroke="#fff" stroke-width="1.5" stroke-linecap="round" stroke-linejoin="round"/></svg><svg fill="none" viewBox="0 0 24 24" id="icon-settings" xmlns="http://www.w3.org/2000/svg"><path d="M15 12c0-1.66-1.34-3-3-3s-3 1.34-3 3a2.996 2.996 0 0 0 4.17 2.76" stroke="#292D32" stroke-width="1.5" stroke-miterlimit="10" stroke-linecap="round" stroke-linejoin="round"/><path d="m6.88 20.58 1.09.63c.79.47 1.81.19 2.28-.6l.11-.19c.9-1.57 2.38-1.57 3.29 0l.11.19c.47.79 1.49 1.07 2.28.6l1.73-.99c.91-.52 1.22-1.69.7-2.59-.91-1.57-.17-2.85 1.64-2.85 1.04 0 1.9-.85 1.9-1.9v-1.76c0-1.04-.85-1.9-1.9-1.9-1.01 0-1.69-.4-1.93-1.03-.19-.49-.11-1.13.29-1.82.52-.91.21-2.07-.7-2.59l-.81-.46M13.64 3.58c-.9 1.57-2.38 1.57-3.29 0l-.11-.19a1.655 1.655 0 0 0-2.27-.6l-1.73.99c-.91.52-1.22 1.69-.7 2.6.91 1.56.17 2.84-1.64 2.84-1.04 0-1.9.85-1.9 1.9v1.76c0 1.04.85 1.9 1.9 1.9 1.81 0 2.55 1.28 1.64 2.85" stroke="#292D32" stroke-width="1.5" stroke-miterlimit="10" stroke-linecap="round" stroke-linejoin="round"/></svg><svg fill="none" viewBox="0 0 16 16" id="icon-status-loading" xmlns="http://www.w3.org/2000/svg"><path fill-rule="evenodd" clip-rule="evenodd" d="M8 16A8 8 0 1 0 8 0a8 8 0 0 0 0 16Zm.261-5.727L8.347 4h-1.16l.086 6.273h.988ZM7.226 12.57c.15.15.33.226.541.226a.73.73 0 0 0 .384-.103.796.796 0 0 0 .383-.665c0-.21-.075-.39-.226-.54a.738.738 0 0 0-.54-.227c-.211 0-.392.076-.542.226a.738.738 0 0 0-.226.541c0 .21.075.391.226.542Z" fill="#949494"/></svg><svg fill="none" viewBox="0 0 16 16" id="icon-status-ready" xmlns="http://www.w3.org/2000/svg"><path d="M16 8A8 8 0 1 1 0 8a8 8 0 0 1 16 0Z" fill="#1CC437"/><path d="m3.833 7.375 1.81 1.764a2 2 0 0 0 2.792 0L12.167 5.5" stroke="#fff" stroke-width="1.5"/></svg><svg fill="none" viewBox="0 0 5 21" id="icon-submenu" xmlns="http://www.w3.org/2000/svg"><circle cx="2.5" cy="2.5" r="2.5" fill="#2F2F2F"/><circle cx="2.5" cy="10.5" r="2.5" fill="#2F2F2F"/><circle cx="2.5" cy="18.5" r="2.5" fill="#2F2F2F"/></svg><svg fill="none" viewBox="0 0 40 40" id="icon-telegram" xmlns="http://www.w3.org/2000/svg"><path fill-rule="evenodd" clip-rule="evenodd" d="M40 20c0 11.046-8.954 20-20 20S0 31.046 0 20 8.954 0 20 0s20 8.954 20 20Zm-19.283-5.235c-1.946.809-5.833 2.484-11.664 5.024-.947.376-1.443.745-1.488 1.105-.076.609.686.848 1.724 1.175.141.044.288.09.438.139 1.02.332 2.394.72 3.108.735.648.014 1.371-.253 2.17-.8 5.447-3.678 8.259-5.537 8.435-5.577.125-.028.298-.063.415.04.116.104.105.301.093.354-.076.322-3.068 3.104-4.616 4.543-.483.449-.825.767-.895.84-.157.163-.317.317-.47.465-.95.914-1.66 1.6.039 2.72.817.538 1.47.983 2.122 1.427.712.485 1.422.969 2.341 1.571.234.154.458.313.676.468.828.591 1.573 1.122 2.493 1.037.534-.05 1.086-.552 1.366-2.05.663-3.542 1.965-11.217 2.266-14.38a3.528 3.528 0 0 0-.033-.787c-.027-.155-.082-.377-.285-.541-.24-.195-.61-.236-.775-.233-.752.013-1.906.415-7.46 2.725Z" fill="url(#oa)"/><defs><linearGradient id="oa" x1="20" y1="0" x2="20" y2="39.703" gradientUnits="userSpaceOnUse"><stop stop-color="#2AABEE"/><stop offset="1" stop-color="#229ED9"/></linearGradient></defs></svg><svg fill="none" viewBox="0 0 24 24" id="icon-user" xmlns="http://www.w3.org/2000/svg"><path d="M15.02 3.01A4.944 4.944 0 0 0 12 2C9.24 2 7 4.24 7 7s2.24 5 5 5 5-2.24 5-5M20.59 22c0-3.87-3.85-7-8.59-7s-8.59 3.13-8.59 7" stroke="#fff" stroke-width="1.5" stroke-linecap="round" stroke-linejoin="round"/></svg><svg fill="none" viewBox="0 0 40 40" id="icon-whatsapp" xmlns="http://www.w3.org/2000/svg"><circle cx="20" cy="20" r="20" fill="#20B038"/><path d="M16.092 13.93c.23.01.485.02.727.559.166.368.444 1.054.666 1.6.164.404.297.73.33.8.082.161.136.35.028.566l-.046.092a1.85 1.85 0 0 1-.277.447c-.054.063-.11.13-.165.198a5.457 5.457 0 0 1-.32.368c-.162.161-.33.336-.142.66.188.323.837 1.382 1.798 2.239 1.033.92 1.93 1.31 2.385 1.507.09.04.162.07.215.097.324.162.512.135.7-.081.19-.216.809-.944 1.024-1.267.216-.324.432-.27.728-.162.296.108 1.886.89 2.21 1.052l.176.086c.226.109.378.182.443.29.08.136.08.783-.189 1.538-.27.755-1.59 1.483-2.182 1.537-.057.005-.114.012-.172.019-.548.064-1.24.145-3.708-.828-3.037-1.198-5.04-4.166-5.453-4.779-.034-.05-.057-.085-.07-.101l-.003-.005c-.175-.233-1.317-1.76-1.317-3.339 0-1.489.732-2.27 1.069-2.628a6.92 6.92 0 0 0 .063-.068c.296-.324.646-.405.862-.405h.035c.204 0 .407 0 .585.008Z" fill="#fff"/><path fill-rule="evenodd" clip-rule="evenodd" d="M8.853 26.345a12.744 12.744 0 0 1-1.749-6.474c0-7.127 5.822-12.922 12.948-12.922 3.472 0 6.709 1.358 9.163 3.785C31.643 13.188 33 16.425 33 19.897c0 7.127-5.821 12.922-12.948 12.922-2.166 0-4.307-.522-6.186-1.567L7 33.054l1.853-6.71Zm2.089-.731.26.391-1.096 3.968 4.073-1.07.391.235a10.635 10.635 0 0 0 5.482 1.514c5.926 0 10.755-4.83 10.755-10.755 0-2.871-1.122-5.586-3.158-7.622a10.702 10.702 0 0 0-7.597-3.133c-5.925 0-10.755 4.803-10.755 10.755 0 2.01.574 3.994 1.645 5.717Z" fill="#fff"/></svg><svg fill="none" viewBox="0 0 190 193" id="img-chat" xmlns="http://www.w3.org/2000/svg"><g clip-path="url(#ra)"><path d="M94.724 0a94.65 94.65 0 0 1 66.98 27.786 94.942 94.942 0 0 1 27.744 67.082v3.47a95.003 95.003 0 0 1-7.21 36.305 94.867 94.867 0 0 1-20.534 30.777 94.73 94.73 0 0 1-30.73 20.565 94.616 94.616 0 0 1-36.25 7.221 94.652 94.652 0 0 1-66.98-27.786A94.94 94.94 0 0 1 0 98.338v-3.47c0-25.16 9.98-49.29 27.744-67.082A94.651 94.651 0 0 1 94.724 0Z" fill="#2676EE"/><mask id="rb" style="mask-type:luminance" maskUnits="userSpaceOnUse" x="0" y="0" width="190" height="194"><path d="M94.737 0a94.654 94.654 0 0 1 66.98 27.786 94.942 94.942 0 0 1 27.744 67.082v3.47a94.985 94.985 0 0 1-7.211 36.305 94.864 94.864 0 0 1-20.533 30.777 94.734 94.734 0 0 1-30.731 20.565 94.612 94.612 0 0 1-36.25 7.221 94.652 94.652 0 0 1-66.98-27.786A94.94 94.94 0 0 1 .013 98.338v-3.47c0-25.16 9.98-49.29 27.744-67.082A94.651 94.651 0 0 1 94.737 0Z" fill="#fff"/></mask><g mask="url(#rb)"><path opacity=".8" d="M177.822 68.852c-29.936-17.143-56.456-3.03-69.713 11.998-13.256 15.029-23.144 30.214-39.776 32.996-16.631 2.781-41.91-4.284-60.725 8.999-18.815 13.283-18.749 48.563-3.853 68.56 14.896 19.998 53.444 29.572 97.938 36.008a117.076 117.076 0 0 0 47.85-2.661l20.205-7.356c9.864-4.509 18.144-9.599 25.147-13.72 10.656-6.308 14.406-21.663 16.45-32.917a135.83 135.83 0 0 0-.756-50.902c-4.488-21.13-14.678-40.649-32.767-51.005Z" fill="#669DF0"/><path d="M124.197 34.05s16.166-5.768 27.412 10.557c11.247 16.325 6.599 25.029 13.987 36.597 7.387 11.57-4.323 26.163-.191 30.072 4.132 3.909 21.119 16.318 13.986 42.067-3.293 11.912 25.575 32.197 10.89 41.741-17.057 11.092-78.449 10.519-91.291 9.92-20.026-.942-57.216-6.017-65.48-22.564-8.265-16.548-10.98-37.375-3.147-47.95 7.832-10.576 12.93-14.574 6.503-26.207-3.325-6.016-22.721-26.142-2.695-37.24 8.983-4.98 1.347-25.52 12.797-35.859 12.606-11.39 19.263-1.452 29.148-10.346 11.22-10.118 44.362-17.153 48.081 9.213Z" fill="#000"/><path d="M108.717 130.014H78.246v39.832h30.471v-39.832Z" fill="#EFB2A2"/><path d="M108.717 142.862V130.02H78.24v19.197c9.434 1.069 21.258-2.592 30.477-6.355Z" fill="#000"/><path d="M92.499 139.673c31.47 0 56.981-23.914 56.981-53.413 0-29.499-25.511-53.413-56.981-53.413-31.47 0-56.98 23.914-56.98 53.413 0 29.499 25.51 53.413 56.98 53.413Z" fill="#EFB2A2"/><path d="M105.843 89.927s13.789-27.378 35.181-6.723c0 0-12.136 29.371-35.181 6.723Z" fill="#fff"/><path d="M85.817 104.902a.53.53 0 0 1-.484-.318.536.536 0 0 1 .09-.573l5.913-6.66a.553.553 0 0 1 .381-.178.547.547 0 0 1 .394.153l5.995 5.902a.53.53 0 0 1 .16.377.537.537 0 0 1-.735.502.55.55 0 0 1-.175-.115l-5.594-5.508-5.544 6.24a.535.535 0 0 1-.4.178ZM132.328 70.215a.457.457 0 0 1-.223-.05c-10.858-5.133-19.18-.084-19.263 0a.53.53 0 0 1-.594-.02.536.536 0 0 1 .029-.891c.356-.223 8.9-5.419 20.28-.032a.54.54 0 0 1 .293.601.537.537 0 0 1-.522.418v-.026ZM77.229 70.444a.552.552 0 0 1-.305-.095c-.077-.058-8.227-5.565-19.511-1.044a.533.533 0 0 1-.672-.707.535.535 0 0 1 .278-.287c11.83-4.743 20.165.917 20.515 1.166a.528.528 0 0 1 .133.738.522.522 0 0 1-.438.23ZM35.544 94.817a.527.527 0 0 1-.521-.433c-1.107-5.915-10.026-9.245-10.121-9.276a.535.535 0 0 1 .368-1.007c.388.14 9.587 3.572 10.808 10.086a.542.542 0 0 1-.426.637l-.108-.007Z" fill="#000"/><path d="M27.133 98.325a.527.527 0 0 1-.432-.222.536.536 0 0 1 .12-.745l7.63-5.489a.534.534 0 0 1 .836.525.534.534 0 0 1-.214.347l-7.628 5.489a.559.559 0 0 1-.312.095Z" fill="#000"/><path d="M80.477 90.265s-14.539-26.983-35.353-5.73c0-.013 12.937 29.014 35.353 5.73Z" fill="#fff"/><path d="M141.025 83.204c-8.57-8.277-15.894-8.838-21.654-6.54a13.428 13.428 0 0 0 3.402 21.833c12.015-.204 18.252-15.293 18.252-15.293ZM80.535 90.246s-8.43-15.593-21.615-13.702a13.442 13.442 0 0 0-.65 19.071 13.398 13.398 0 0 0 5.952 3.659c4.672-.146 10.133-2.591 16.313-9.028Z" fill="#000"/><path d="M116.765 108.825a125.732 125.732 0 0 0-32.543 12.638s22.416 5.145 32.543-12.638Z" fill="#430400"/><path d="M92.493 32.847c-31.469 0-57.731 20.903-56.981 53.42 0 1.056 10.706-8.768 16.218-15.498 5.511-6.73 5.085-22.565 27.82-13.83 22.733 8.736 36.973-12.644 36.973-12.644 2.302 13.83 10.566 13.594 20.407 19.999 9.842 6.405 12.575 18.413 9.136 30.192-1.373 4.692-3.211 19.177-2.041 22.431 4.26-7.481 5.448-21.578 5.448-30.65 0-29.505-25.512-53.42-56.98-53.42Z" fill="#000"/><path d="M108.716 156.367h-30.47v13.479L3.318 178.9l1.005 14.083 185.952 2.101 2.657-21.615-84.216-3.623v-13.479ZM165.958 89.92l-1.793 16.504a15.293 15.293 0 0 1-5.607 10.259 15.232 15.232 0 0 1-11.208 3.284l-1.481-.159a5.124 5.124 0 0 1-3.434-1.882 5.138 5.138 0 0 1-1.105-3.76l4.195-38.724a3.096 3.096 0 0 1 1.316-2.203 2.964 2.964 0 0 1 1.73-.553c.116-.007.233-.007.349 0a53.205 53.205 0 0 0-16.28-30.168 53.04 53.04 0 0 0-64.56-5.868 53.169 53.169 0 0 0-21.436 26.74 55.356 55.356 0 0 0 .693 55.953l-5.601.605a15.235 15.235 0 0 1-11.208-3.284 15.271 15.271 0 0 1-5.607-10.259l-1.793-16.503a15.303 15.303 0 0 1 3.28-11.227 15.264 15.264 0 0 1 10.248-5.614l.808-.089a60.118 60.118 0 0 1 20.712-35.667 59.951 59.951 0 0 1 38.796-13.884 59.953 59.953 0 0 1 38.591 14.442 60.12 60.12 0 0 1 20.198 35.962 15.265 15.265 0 0 1 7.912 6.26 15.304 15.304 0 0 1 2.285 9.836Z" fill="#EE26C2"/><path d="M122.893 137.731c-6.287 0-13.452-1.503-21.436-4.508l1.627-4.349c13.827 5.202 24.711 5.59 32.346 1.165 8.265-4.8 9.841-13.899 9.86-14.007l4.578.726c-.07.458-1.869 11.301-12.041 17.248-4.234 2.483-9.225 3.725-14.934 3.725Z" fill="#EE26C2"/><path d="m100.465 136.126-4.984-1.942a5.31 5.31 0 0 1-.212-9.796 5.274 5.274 0 0 1 4.051-.085l4.985 1.942a5.279 5.279 0 0 1 2.927 2.806 5.306 5.306 0 0 1-2.716 6.989 5.279 5.279 0 0 1-4.051.086Z" fill="#000"/></g></g><defs><clipPath id="ra"><path fill="#fff" d="M0 0h190v193H0z"/></clipPath></defs></svg><svg fill="none" viewBox="0 0 256 314" id="img-files" xmlns="http://www.w3.org/2000/svg"><circle cx="60.5" cy="6.5" r="6.5" fill="#669DF0"/><circle cx="35.5" cy="115.5" r="4.5" fill="#2676EE"/><circle cx="212.5" cy="87.5" r="8.5" fill="#2676EE"/><path stroke="#000" stroke-width="2" stroke-linecap="round" d="M106 61v12M106 85v12M124 79h-12M100 79H88M158 1v12M158 25v12M176 19h-12M152 19h-12"/><ellipse cx="133" cy="289.5" rx="99" ry="24.5" fill="#F4D4ED"/><g clip-path="url(#sa)"><path d="m199.236 207.471-134.884 15.72a1.63 1.63 0 0 1-1.805-1.435l-8.988-76.775a1.629 1.629 0 0 1 .822-1.611c.186-.104.392-.17.604-.194l2.555-.299a1.623 1.623 0 0 0 1.383-1.197l1.749-6.528c.051-.204.144-.395.272-.562a3.743 3.743 0 0 1 2.473-1.358l34.002-3.959a3.733 3.733 0 0 1 2.21.419c.184.106.343.248.471.417l4.844 6.44a1.62 1.62 0 0 0 1.489.639l83.44-9.717a1.635 1.635 0 0 1 1.809 1.428l8.985 76.77a1.63 1.63 0 0 1-1.431 1.802Z" fill="#000" stroke="#000" stroke-miterlimit="10"/><path d="M200.521 206.74 71.886 241.208a2.946 2.946 0 0 1-3.607-2.088l-19.324-72.119a2.953 2.953 0 0 1 .293-2.238 2.941 2.941 0 0 1 1.787-1.373l.349-.094a2.962 2.962 0 0 0 2.166-2.504l.636-5.458a2.871 2.871 0 0 1 .772-1.674 3.767 3.767 0 0 1 1.706-1l33.063-8.86a3.804 3.804 0 0 1 1.364-.11c.64.079 1.234.371 1.687.831l4.904 4.843a2.945 2.945 0 0 0 2.832.752l79.151-21.209a2.94 2.94 0 0 1 2.235.296 2.955 2.955 0 0 1 1.373 1.792l19.328 72.134a2.963 2.963 0 0 1-.293 2.238 2.945 2.945 0 0 1-1.787 1.373Z" fill="#EE26C2"/><mask id="sb" style="mask-type:luminance" maskUnits="userSpaceOnUse" x="48" y="128" width="155" height="114"><path d="M200.521 206.74 71.886 241.208a2.946 2.946 0 0 1-3.607-2.088l-19.324-72.119a2.953 2.953 0 0 1 .293-2.238 2.941 2.941 0 0 1 1.787-1.373l.349-.094a2.962 2.962 0 0 0 2.166-2.504l.636-5.458a2.871 2.871 0 0 1 .772-1.674 3.767 3.767 0 0 1 1.706-1l33.063-8.86a3.804 3.804 0 0 1 1.364-.11c.64.079 1.234.371 1.687.831l4.904 4.843a2.945 2.945 0 0 0 2.832.752l79.151-21.209a2.94 2.94 0 0 1 2.235.296 2.955 2.955 0 0 1 1.373 1.792l19.328 72.134a2.963 2.963 0 0 1-.293 2.238 2.945 2.945 0 0 1-1.787 1.373Z" fill="#fff"/></mask><g mask="url(#sb)"><path opacity=".1" d="M200.521 206.74 71.886 241.208a2.946 2.946 0 0 1-3.607-2.088l-19.324-72.119a2.953 2.953 0 0 1 .293-2.238 2.941 2.941 0 0 1 1.787-1.373l.349-.094a2.962 2.962 0 0 0 2.166-2.504l.636-5.458a2.871 2.871 0 0 1 .772-1.674 3.767 3.767 0 0 1 1.706-1l33.063-8.86a3.804 3.804 0 0 1 1.364-.11c.64.079 1.234.371 1.687.831l4.904 4.843a2.945 2.945 0 0 0 2.832.752l79.151-21.209a2.94 2.94 0 0 1 2.235.296 2.955 2.955 0 0 1 1.373 1.792l19.328 72.134a2.963 2.963 0 0 1-.293 2.238 2.945 2.945 0 0 1-1.787 1.373Z" fill="#000"/></g><path d="M200.521 206.74 71.886 241.208a2.946 2.946 0 0 1-3.607-2.088l-19.324-72.119a2.953 2.953 0 0 1 .293-2.238 2.941 2.941 0 0 1 1.787-1.373l.349-.094a2.962 2.962 0 0 0 2.166-2.504l.636-5.458a2.871 2.871 0 0 1 .772-1.674 3.767 3.767 0 0 1 1.706-1l33.063-8.86a3.804 3.804 0 0 1 1.364-.11c.64.079 1.234.371 1.687.831l4.904 4.843a2.945 2.945 0 0 0 2.832.752l79.151-21.209a2.94 2.94 0 0 1 2.235.296 2.955 2.955 0 0 1 1.373 1.792l19.328 72.134a2.963 2.963 0 0 1-.293 2.238 2.945 2.945 0 0 1-1.787 1.373Z" stroke="#000" stroke-miterlimit="10"/><path d="m84.473 154.169-20.585 5.516a1.922 1.922 0 0 1-2.4-2.109 1.923 1.923 0 0 1 .732-1.276c.2-.153.429-.266.672-.331l20.585-5.516a1.919 1.919 0 0 1 1.46.193 1.93 1.93 0 0 1 .945 1.919 1.922 1.922 0 0 1-1.41 1.604Z" fill="#000"/><path d="M203.893 219.325 75.258 253.792a2.95 2.95 0 0 1-3.607-2.087l-19.325-72.119a2.953 2.953 0 0 1 .294-2.238 2.939 2.939 0 0 1 1.787-1.374l.349-.093a2.953 2.953 0 0 0 2.165-2.504l.638-5.453a2.845 2.845 0 0 1 .772-1.674 3.713 3.713 0 0 1 1.706-1.001L93.1 156.39a3.76 3.76 0 0 1 1.365-.11 2.842 2.842 0 0 1 1.688.835l4.905 4.848a2.95 2.95 0 0 0 2.832.752l79.151-21.208a2.945 2.945 0 0 1 3.608 2.087l19.324 72.119a2.95 2.95 0 0 1-2.08 3.612Z" fill="#000" stroke="#000" stroke-miterlimit="10"/><path d="m90.35 136.656-21.101 2.937a1.927 1.927 0 0 1-2.17-1.641 1.926 1.926 0 0 1 1.643-2.169l21.096-2.935a1.928 1.928 0 0 1 2.127 2.39 1.921 1.921 0 0 1-1.594 1.418Z" fill="#EE26C2"/><path opacity=".5" d="m90.35 136.656-21.101 2.937a1.927 1.927 0 0 1-2.17-1.641 1.926 1.926 0 0 1 1.643-2.169l21.096-2.935a1.928 1.928 0 0 1 2.127 2.39 1.921 1.921 0 0 1-1.594 1.418Z" fill="#fff"/><path d="m87.846 166.759-20.584 5.515a1.906 1.906 0 0 1-1.458-.194 1.907 1.907 0 0 1-.893-1.17 1.927 1.927 0 0 1 1.353-2.357l20.585-5.516a1.923 1.923 0 0 1 2.356 1.363 1.922 1.922 0 0 1-1.358 2.359Z" fill="#EE26C2"/><path opacity=".5" d="m87.846 166.759-20.584 5.515a1.906 1.906 0 0 1-1.458-.194 1.907 1.907 0 0 1-.893-1.17 1.927 1.927 0 0 1 1.353-2.357l20.585-5.516a1.923 1.923 0 0 1 2.356 1.363 1.922 1.922 0 0 1-1.358 2.359Z" fill="#fff"/><path d="m193.059 162.07-137.05 36.723a2.763 2.763 0 0 0-1.951 3.386l22.265 83.097a2.764 2.764 0 0 0 3.383 1.957l137.05-36.722a2.764 2.764 0 0 0 1.951-3.387l-22.266-83.096a2.764 2.764 0 0 0-3.382-1.958Z" fill="#2676EE"/><path d="m193.059 162.07-137.05 36.723a2.763 2.763 0 0 0-1.951 3.386l22.265 83.097a2.764 2.764 0 0 0 3.383 1.957l137.05-36.722a2.764 2.764 0 0 0 1.951-3.387l-22.266-83.096a2.764 2.764 0 0 0-3.382-1.958Z" stroke="#000" stroke-miterlimit="10"/><path d="m154.37 207.097-42.338 11.344a1.432 1.432 0 0 0-1.011 1.755l5.8 21.644a1.43 1.43 0 0 0 1.752 1.014l42.339-11.344a1.431 1.431 0 0 0 1.01-1.754l-5.799-21.645a1.431 1.431 0 0 0-1.753-1.014Z" fill="#000" stroke="#000" stroke-miterlimit="10"/><path d="m154.37 207.097-42.338 11.344a1.432 1.432 0 0 0-1.011 1.755l1.247 4.654c.205.764.99 1.218 1.753 1.014l42.338-11.345a1.43 1.43 0 0 0 1.011-1.754l-1.247-4.654a1.431 1.431 0 0 0-1.753-1.014Z" fill="#fff" stroke="#000" stroke-miterlimit="10"/><path d="m77.238 132.148 3.24.534s.29-.779-.437-.883l-1.127-.399" fill="#fff"/><path d="m77.238 132.148 3.24.534s.29-.779-.437-.883l-1.127-.399" stroke="#000" stroke-linejoin="round"/></g><defs><clipPath id="sa"><path fill="#fff" transform="rotate(-15 569.34 74.955)" d="M0 0h222.618v157.651H0z"/></clipPath></defs></svg><svg fill="none" viewBox="0 0 219 30" id="logo" xmlns="http://www.w3.org/2000/svg"><path d="M5.347 7.794v10.694h5.347c.733 0 1.422-.137 2.068-.41a5.547 5.547 0 0 0 1.696-1.155 5.286 5.286 0 0 0 1.136-1.695 5.187 5.187 0 0 0 .429-2.087c0-.733-.143-1.422-.429-2.068a5.233 5.233 0 0 0-2.832-2.85 5.055 5.055 0 0 0-2.068-.43H5.347Zm0 21.37H0V2.447h10.694c.981 0 1.925.13 2.832.391a9.99 9.99 0 0 1 2.534 1.08c.795.46 1.515 1.02 2.161 1.677a10.09 10.09 0 0 1 1.677 2.162c.472.795.832 1.645 1.08 2.552.261.907.392 1.85.392 2.832 0 1.466-.28 2.85-.839 4.155a10.823 10.823 0 0 1-2.291 3.39 10.766 10.766 0 0 1-3.41 2.292c-1.291.559-2.67.838-4.136.838H5.347v5.348ZM29.977 3.788c0 .472-.093.913-.28 1.323-.173.41-.415.77-.726 1.08-.31.299-.677.541-1.1.727-.41.174-.85.261-1.322.261-.472 0-.92-.087-1.341-.26a3.84 3.84 0 0 1-1.081-.727 3.84 3.84 0 0 1-.727-1.08c-.173-.41-.26-.852-.26-1.324 0-.46.087-.894.26-1.304A3.38 3.38 0 0 1 25.207.677c.423-.186.87-.28 1.342-.28.472 0 .913.094 1.323.28.422.174.788.416 1.099.727.31.298.553.658.727 1.08.186.41.28.845.28 1.304Zm-.875 25.376h-5.124V9.21h5.123v19.954ZM38.082 29.164h-5.087V9.21h1.23l1.677 1.938a8.798 8.798 0 0 1 2.776-1.715 8.839 8.839 0 0 1 3.26-.614c1.217 0 2.366.236 3.447.708 1.08.46 2.024 1.099 2.832 1.919a8.818 8.818 0 0 1 1.9 2.85 8.562 8.562 0 0 1 .708 3.466v11.402H45.74V17.762c0-.522-.1-1.013-.298-1.472a3.81 3.81 0 0 0-2.031-2.05 3.669 3.669 0 0 0-1.472-.298A3.85 3.85 0 0 0 39.2 15.06a3.808 3.808 0 0 0-.82 1.23c-.198.46-.297.95-.297 1.472v11.402ZM59.582 29.164h-5.124V1.274h5.124V18.86l7.582-9.614h5.85l-6.614 8.31 6.614 11.607h-5.85l-4.043-7.248-3.54 4.695v2.553Z" fill="#EE26C2"/><path fill-rule="evenodd" clip-rule="evenodd" d="M99.42 3.175A14.508 14.508 0 0 0 88.323.625a14.384 14.384 0 0 0-3.522 1.081 14.705 14.705 0 0 0-3.162 1.945 14.77 14.77 0 0 0-2.577 2.705A14.435 14.435 0 0 0 77.24 9.76a14.432 14.432 0 0 0-.877 3.76 15.25 15.25 0 0 0 .152 3.733 14.96 14.96 0 0 0 1.344 4.043 14.502 14.502 0 0 0 10.122 7.823 14.508 14.508 0 0 0 16.277-8.596l-5.2-2.184a8.883 8.883 0 0 1-4.464 4.62l-.018-.096a8.918 8.918 0 0 1-2.402.754 8.894 8.894 0 0 1-3.228-.058 8.869 8.869 0 0 1 .495-17.402 8.85 8.85 0 0 1 7.45 2.23 8.872 8.872 0 0 1 2.147 3.216l5.922-2.211.028.075c.84-.93 1.734-2.011 2.654-3.15-1.822-.105-3.551-.176-5.015-.14.4-1.513.736-3.397 1.056-5.404-1.568.827-3.045 1.635-4.263 2.402Z" fill="#000"/><path d="M114.835 29.036h-5.136V.884h5.136v8.895c.615-.464 1.249-.79 1.901-.978.652-.2 1.317-.3 1.994-.3a8.65 8.65 0 0 1 3.5.714 8.606 8.606 0 0 1 2.841 1.937 8.888 8.888 0 0 1 1.919 2.877 8.633 8.633 0 0 1 .715 3.498v11.509h-5.174v-11.51h.038c0-.526-.101-1.02-.301-1.485a3.855 3.855 0 0 0-2.051-2.068c-.464-.201-.96-.301-1.487-.301a3.89 3.89 0 0 0-2.766 1.128 3.836 3.836 0 0 0-.827 1.241c-.201.464-.302.96-.302 1.486v11.509ZM137.433 3.423c0 .476-.094.921-.282 1.335-.176.414-.42.777-.734 1.09-.313.301-.683.546-1.11.734a3.386 3.386 0 0 1-1.336.263 3.53 3.53 0 0 1-1.355-.263 3.882 3.882 0 0 1-1.091-.733 3.875 3.875 0 0 1-.734-1.091 3.392 3.392 0 0 1-.263-1.335c0-.464.088-.903.263-1.317a3.416 3.416 0 0 1 1.825-1.824A3.326 3.326 0 0 1 133.971 0c.477 0 .922.094 1.336.282.427.176.797.42 1.11.734.314.3.558.664.734 1.09.188.414.282.853.282 1.317Zm-.884 25.613h-5.174V8.895h5.174v20.14ZM158.093 12.9l-3.763 3.78a4.924 4.924 0 0 0-.772-1.41 4.98 4.98 0 0 0-1.11-1.072 4.625 4.625 0 0 0-1.317-.658 4.845 4.845 0 0 0-1.467-.226 4.72 4.72 0 0 0-1.995.433 4.929 4.929 0 0 0-1.618 1.222 5.8 5.8 0 0 0-1.073 1.843c-.263.715-.395 1.505-.395 2.37 0 .702.132 1.36.395 1.974a5.28 5.28 0 0 0 1.073 1.618 5.109 5.109 0 0 0 1.618 1.09 5.1 5.1 0 0 0 1.995.395c.501 0 .984-.069 1.448-.207a5.274 5.274 0 0 0 1.299-.583 4.921 4.921 0 0 0 1.091-.94c.326-.376.59-.79.79-1.241l3.763 3.78a9.927 9.927 0 0 1-1.655 1.824c-.615.54-1.286.997-2.014 1.373a9.555 9.555 0 0 1-2.276.846c-.791.2-1.606.301-2.446.301-1.418 0-2.754-.263-4.008-.79a10.667 10.667 0 0 1-3.274-2.2 10.444 10.444 0 0 1-2.202-3.253 9.9 9.9 0 0 1-.809-3.987c0-1.542.27-2.984.809-4.326.54-1.341 1.274-2.507 2.202-3.497a10.532 10.532 0 0 1 3.274-2.37 9.478 9.478 0 0 1 4.008-.865c.84 0 1.662.107 2.464.32a9.546 9.546 0 0 1 2.315.94c.74.401 1.417.896 2.032 1.486a9.146 9.146 0 0 1 1.618 2.03ZM165.789 29.036h-5.175V.884h5.175v17.752l7.658-9.703h5.908l-6.68 8.387 6.68 11.716h-5.908l-4.083-7.316-3.575 4.74v2.576ZM188.763 24.109c.201.063.401.106.602.131.201.013.401.02.602.02a5.06 5.06 0 0 0 1.449-.208 5.268 5.268 0 0 0 1.298-.583 4.975 4.975 0 0 0 1.882-2.181l3.763 3.78a9.968 9.968 0 0 1-1.656 1.824c-.614.54-1.286.997-2.013 1.373a9.546 9.546 0 0 1-2.277.846c-.79.2-1.605.301-2.446.301-1.417 0-2.753-.263-4.008-.79a10.25 10.25 0 0 1-3.274-2.2 10.425 10.425 0 0 1-2.201-3.348c-.539-1.303-.809-2.733-.809-4.287 0-1.592.27-3.047.809-4.363.539-1.316 1.273-2.439 2.201-3.366a10.148 10.148 0 0 1 3.274-2.163 10.471 10.471 0 0 1 4.008-.771 10.162 10.162 0 0 1 4.742 1.166c.727.376 1.405.84 2.032 1.392a9.968 9.968 0 0 1 1.656 1.824l-9.634 11.603Zm2.634-10.588a2.965 2.965 0 0 0-.715-.169 6.479 6.479 0 0 0-.715-.038c-.702 0-1.367.132-1.994.395a4.738 4.738 0 0 0-1.619 1.091 5.248 5.248 0 0 0-1.072 1.73c-.263.665-.395 1.417-.395 2.257 0 .188.006.401.019.64.025.237.056.482.094.733.05.238.106.47.169.695.063.226.144.427.245.602l5.983-7.936ZM206.13 29.036h-5.137V8.896h1.242l1.694 1.955a8.875 8.875 0 0 1 2.803-1.73 8.93 8.93 0 0 1 3.293-.62 8.61 8.61 0 0 1 3.481.714 8.822 8.822 0 0 1 2.86 1.937 8.904 8.904 0 0 1 1.919 2.877 8.633 8.633 0 0 1 .715 3.498v11.509h-5.137v-11.51c0-.526-.1-1.02-.301-1.485-.2-.476-.476-.89-.828-1.241a3.903 3.903 0 0 0-1.223-.827c-.464-.201-.959-.301-1.486-.301-.54 0-1.048.1-1.524.3-.477.201-.891.477-1.242.828a3.855 3.855 0 0 0-.828 1.241c-.201.464-.301.96-.301 1.486v11.509Z" fill="#000"/></svg><svg fill="none" viewBox="0 0 219 32" id="logo-grey" xmlns="http://www.w3.org/2000/svg"><path d="M5.347 8.794v10.694h5.347c.733 0 1.422-.137 2.068-.41a5.547 5.547 0 0 0 1.696-1.155 5.286 5.286 0 0 0 1.136-1.695 5.187 5.187 0 0 0 .429-2.087c0-.733-.143-1.422-.429-2.068a5.233 5.233 0 0 0-1.136-1.714 5.285 5.285 0 0 0-1.696-1.137 5.055 5.055 0 0 0-2.068-.428H5.347Zm0 21.37H0V3.447h10.694c.981 0 1.925.13 2.832.391a9.99 9.99 0 0 1 2.534 1.08c.795.46 1.515 1.02 2.161 1.677a10.09 10.09 0 0 1 1.677 2.162c.472.795.832 1.645 1.08 2.552.261.907.392 1.85.392 2.832 0 1.466-.28 2.85-.839 4.155a10.823 10.823 0 0 1-2.291 3.39 10.766 10.766 0 0 1-3.41 2.292c-1.291.559-2.67.838-4.136.838H5.347v5.348ZM29.977 4.788c0 .472-.093.913-.28 1.323-.173.41-.415.77-.726 1.08-.31.299-.677.541-1.1.727-.41.174-.85.261-1.322.261-.472 0-.92-.087-1.341-.26a3.84 3.84 0 0 1-1.081-.727 3.84 3.84 0 0 1-.727-1.08c-.173-.41-.26-.852-.26-1.324 0-.46.087-.894.26-1.304a3.38 3.38 0 0 1 1.807-1.807c.423-.186.87-.28 1.342-.28.472 0 .913.094 1.323.28.422.174.788.416 1.099.727.31.298.553.658.727 1.08.186.41.28.845.28 1.304Zm-.875 25.376h-5.124V10.21h5.123v19.954ZM38.082 30.164h-5.087V10.21h1.23l1.677 1.938a8.8 8.8 0 0 1 2.776-1.715 8.84 8.84 0 0 1 3.26-.614c1.217 0 2.366.236 3.447.708 1.08.46 2.024 1.099 2.832 1.919a8.818 8.818 0 0 1 1.9 2.85 8.562 8.562 0 0 1 .708 3.466v11.402H45.74V18.762c0-.522-.1-1.013-.298-1.472a3.81 3.81 0 0 0-2.031-2.05 3.669 3.669 0 0 0-1.472-.298A3.85 3.85 0 0 0 39.2 16.06a3.808 3.808 0 0 0-.82 1.23c-.198.46-.297.95-.297 1.472v11.402ZM59.582 30.164h-5.124V2.274h5.124V19.86l7.582-9.614h5.85l-6.614 8.31 6.614 11.607h-5.85l-4.043-7.248-3.54 4.695v2.553Z" fill="#C4C4C4"/><path fill-rule="evenodd" clip-rule="evenodd" d="M99.42 4.175a14.508 14.508 0 0 0-11.097-2.55 14.384 14.384 0 0 0-3.522 1.081 14.705 14.705 0 0 0-3.162 1.945 14.77 14.77 0 0 0-2.577 2.705 14.434 14.434 0 0 0-1.822 3.404 14.432 14.432 0 0 0-.877 3.76 15.25 15.25 0 0 0 .152 3.733 14.96 14.96 0 0 0 1.344 4.043 14.502 14.502 0 0 0 10.122 7.823 14.508 14.508 0 0 0 16.277-8.596l-5.2-2.184a8.883 8.883 0 0 1-4.464 4.62l-.018-.096a8.918 8.918 0 0 1-2.402.754 8.894 8.894 0 0 1-3.228-.058 8.869 8.869 0 0 1 .495-17.402 8.85 8.85 0 0 1 7.45 2.23 8.873 8.873 0 0 1 2.147 3.216l5.922-2.211.028.075c.84-.93 1.734-2.011 2.654-3.15-1.822-.105-3.551-.176-5.015-.14.4-1.513.736-3.397 1.056-5.404-1.568.827-3.045 1.635-4.263 2.402Z" fill="#C4C4C4"/><path d="M114.835 30.036h-5.136V1.884h5.136v8.895c.615-.464 1.249-.79 1.901-.978.652-.2 1.317-.3 1.994-.3a8.65 8.65 0 0 1 3.5.714 8.604 8.604 0 0 1 2.841 1.937 8.888 8.888 0 0 1 1.919 2.877 8.633 8.633 0 0 1 .715 3.498v11.509h-5.174v-11.51h.038c0-.526-.101-1.02-.301-1.485a3.855 3.855 0 0 0-2.051-2.068c-.464-.201-.96-.301-1.487-.301a3.89 3.89 0 0 0-2.766 1.128 3.836 3.836 0 0 0-.827 1.241c-.201.464-.302.96-.302 1.486v11.509ZM137.433 4.423c0 .476-.094.921-.282 1.335-.176.414-.42.777-.734 1.09-.313.301-.683.546-1.11.734a3.386 3.386 0 0 1-1.336.263 3.53 3.53 0 0 1-1.355-.263 3.882 3.882 0 0 1-1.091-.733 3.875 3.875 0 0 1-.734-1.091 3.392 3.392 0 0 1-.263-1.335c0-.464.088-.903.263-1.317a3.416 3.416 0 0 1 1.825-1.824A3.326 3.326 0 0 1 133.971 1c.477 0 .922.094 1.336.282.427.176.797.42 1.11.733.314.301.558.665.734 1.091.188.414.282.853.282 1.317Zm-.884 25.613h-5.174V9.895h5.174v20.14ZM158.093 13.9l-3.763 3.78a4.924 4.924 0 0 0-.772-1.41 4.98 4.98 0 0 0-1.11-1.072 4.625 4.625 0 0 0-1.317-.658 4.845 4.845 0 0 0-1.467-.226 4.72 4.72 0 0 0-1.995.433 4.929 4.929 0 0 0-1.618 1.222 5.8 5.8 0 0 0-1.073 1.843c-.263.715-.395 1.505-.395 2.37 0 .702.132 1.36.395 1.974a5.28 5.28 0 0 0 1.073 1.618 5.109 5.109 0 0 0 1.618 1.09 5.1 5.1 0 0 0 1.995.395c.501 0 .984-.069 1.448-.207a5.274 5.274 0 0 0 1.299-.583 4.921 4.921 0 0 0 1.091-.94c.326-.376.59-.79.79-1.241l3.763 3.78a9.927 9.927 0 0 1-1.655 1.824c-.615.54-1.286.997-2.014 1.373a9.555 9.555 0 0 1-2.276.846c-.791.2-1.606.301-2.446.301-1.418 0-2.754-.263-4.008-.79a10.667 10.667 0 0 1-3.274-2.2 10.444 10.444 0 0 1-2.202-3.253 9.9 9.9 0 0 1-.809-3.987c0-1.542.27-2.984.809-4.326.54-1.341 1.274-2.507 2.202-3.497a10.532 10.532 0 0 1 3.274-2.37 9.478 9.478 0 0 1 4.008-.865c.84 0 1.662.107 2.464.32a9.546 9.546 0 0 1 2.315.94c.74.401 1.417.896 2.032 1.486a9.146 9.146 0 0 1 1.618 2.03ZM165.789 30.036h-5.175V1.884h5.175v17.752l7.658-9.703h5.908l-6.68 8.387 6.68 11.716h-5.908l-4.083-7.316-3.575 4.74v2.576ZM188.763 25.109c.201.063.401.106.602.131.201.013.401.02.602.02a5.06 5.06 0 0 0 1.449-.208 5.268 5.268 0 0 0 1.298-.583 4.975 4.975 0 0 0 1.882-2.181l3.763 3.78a9.968 9.968 0 0 1-1.656 1.824c-.614.54-1.286.997-2.013 1.373a9.546 9.546 0 0 1-2.277.846c-.79.2-1.605.301-2.446.301-1.417 0-2.753-.263-4.008-.79a10.25 10.25 0 0 1-3.274-2.2 10.425 10.425 0 0 1-2.201-3.348c-.539-1.303-.809-2.733-.809-4.287 0-1.592.27-3.047.809-4.363.539-1.316 1.273-2.439 2.201-3.366a10.149 10.149 0 0 1 3.274-2.163 10.471 10.471 0 0 1 4.008-.771 10.16 10.16 0 0 1 4.742 1.166c.727.376 1.405.84 2.032 1.392a9.968 9.968 0 0 1 1.656 1.824l-9.634 11.603Zm2.634-10.588a2.965 2.965 0 0 0-.715-.169 6.479 6.479 0 0 0-.715-.038c-.702 0-1.367.132-1.994.395a4.738 4.738 0 0 0-1.619 1.091 5.248 5.248 0 0 0-1.072 1.73c-.263.665-.395 1.417-.395 2.257 0 .188.006.401.019.64.025.237.056.482.094.733.05.238.106.47.169.695.063.226.144.427.245.602l5.983-7.936ZM206.13 30.036h-5.137V9.896h1.242l1.694 1.955a8.875 8.875 0 0 1 2.803-1.73 8.931 8.931 0 0 1 3.293-.62c1.229 0 2.389.237 3.481.714a8.82 8.82 0 0 1 2.86 1.937 8.904 8.904 0 0 1 1.919 2.877 8.633 8.633 0 0 1 .715 3.498v11.509h-5.137v-11.51c0-.526-.1-1.02-.301-1.485-.2-.476-.476-.89-.828-1.241a3.903 3.903 0 0 0-1.223-.827c-.464-.201-.959-.301-1.486-.301-.54 0-1.048.1-1.524.3-.477.201-.891.477-1.242.828a3.855 3.855 0 0 0-.828 1.241c-.201.464-.301.96-.301 1.486v11.509Z" fill="#C4C4C4"/></svg></svg>